<?xml version="1.0" encoding="utf-8"?>
<!-- Generator: Adobe Illustrator 19.0.0, SVG Export Plug-In . SVG Version: 6.00 Build 0)  -->
<svg version="1.1" xmlns="http://www.w3.org/2000/svg" xmlns:xlink="http://www.w3.org/1999/xlink" x="0px" y="0px"
	 viewBox="0 0 300 300" enable-background="new 0 0 300 300" xml:space="preserve">
<pattern  width="108.3" height="109.6" patternUnits="userSpaceOnUse" id="Jive" viewBox="47.6 -219.3 108.3 109.6" overflow="visible">
	<g>
		<polygon fill="none" points="47.6,-219.3 155.9,-219.3 155.9,-109.6 47.6,-109.6 		"/>
		<g>
			<path fill="#00427E" d="M135-74.9c0-0.1,0.1-0.2,0.2-0.2c12.9-0.1,24.8-3.3,34-11.5c-8,5.6-22.9,7.5-31.5,3.6
				c-0.1,0-0.2-0.2-0.1-0.3c0-0.1,0.1-0.2,0.3-0.2c10.7,0.3,19.3-3,26-9c-6.9-0.4-12.6-4.7-12.6-9.8c0-0.1,0.1-0.2,0.2-0.2
				c0.1,0,0.2,0,0.3,0.1c1.1,2.5,4.7,3.8,8.6,2.9c4.2-1,7-4.2,6.3-7.2c-0.5-2-2.4-3.4-5-3.8c-0.1,0-0.2-0.1-0.2-0.3
				c0-0.1,0.1-0.2,0.2-0.2c1.1-0.1,2.2-0.1,3.3,0c6.5,0.6,11.5,4.6,11.9,9.2c4.7-0.5,8.9-3.2,10.4-6.8c0-0.1,0.2-0.2,0.3-0.2
				c0.1,0,0.2,0.1,0.2,0.2c0.4,4.8-1.3,7.8-5,10.9c5.4-2.1,11.4-2.2,17.3,0.5c0.1,0,0.2,0.2,0.1,0.3c0,0.1-0.1,0.2-0.2,0.2
				c-4.9,0.2-8.4,1.8-11.7,5.1c18.3-5.1,33.1,6.2,28,23.1c0,0.1-0.1,0.2-0.3,0.2c-0.1,0-0.2-0.1-0.2-0.2
				c-0.9-9.7-7.7-16.1-17.9-17.1c5.4,2.1,11,7,11.6,15.5c0,0.1-0.1,0.2-0.2,0.3c-0.1,0-0.2,0-0.3-0.1c-2.8-6.2-8.3-9.3-14.2-9.8
				c6.3,2.6,10.4,8.6,11.6,16.4c0,0.1-0.1,0.2-0.2,0.3c-0.1,0-0.2,0-0.3-0.1c-3.9-7.6-12.2-12.8-22.4-8.8
				c-10.6,4.1-15.3,16.4-16.3,25c0,0.1-0.1,0.2-0.2,0.2c-0.1,0-0.2-0.1-0.3-0.2c-3.7-15.7,3.6-31.9,16.6-38.8
				c-7.1,2-13.4,6.3-17,13.4c-8.3,1-14,3.9-16.9,9.2c-0.1,0.1-0.2,0.2-0.3,0.1c-0.1,0-0.2-0.1-0.2-0.3c0.2-2.1,0.9-6.3,4.1-8.3
				c-7,0-12.5-0.9-17.8-3C135.1-74.7,135-74.8,135-74.9z M164.5-21.5c-0.1-0.1-0.2-0.1-0.3,0c-0.1,0.1-0.1,0.2,0,0.3
				c1.6,2.8,0.1,6.8-3.1,6.8c-5.7,0-8.5-10.8-7.6-20.6c2.2,5.8,4,8.1,7.3,10.8c0.1,0.1,0.2,0.1,0.3,0c0.1-0.1,0.1-0.2,0.1-0.3
				c-4.9-9.1-5.9-16.1-5.9-24.1c1.5,6,3.2,9.3,8.1,14.4c0.1,0.1,0.2,0.1,0.3,0c0.1-0.1,0.1-0.2,0.1-0.3c-5.3-11.6-4.9-24.4-0.9-34.3
				c0-0.1,0-0.2-0.1-0.3c-0.1-0.1-0.2-0.1-0.3,0c-5.2,2.6-8.3,4.2-12.8,10.4c1.4,7.4,0.2,11-3.2,17.2c3.9-9.9,1.8-23.9-8.2-29.6
				c-0.1-0.1-0.2,0-0.3,0.1c-0.1,0.1-0.1,0.2,0,0.3c3.8,4,6.5,10.6,4.2,17.9c1.5-10.4-7.6-19.1-17.8-19.1c-9.6,0-16.2,7.5-15.6,14.9
				c0.5,7.4,5.4,11,9.7,12.5c0.1,0,0.2,0,0.3-0.1c0.1-0.1,0-0.2,0-0.3c-5.6-5.7-6.4-16.5,3.6-19.8c-5.9,5.1-3.7,16.8,5.7,17.7
				c0.1,0,0.2-0.1,0.3-0.2c0-0.1,0-0.2-0.1-0.3c-2-1.3-3.7-3.8-3.7-6.6c0-4.7,3.4-6.5,5.7-6.5c3.4,0,6.3,3.3,6.3,8.2
				c0,5.8-5.3,10.7-12,11.4c-6.6,0.7-12.8-2.2-15.8-6.5c-0.1-0.1-0.2-0.1-0.3-0.1c-0.1,0.1-0.2,0.2-0.1,0.3
				c3,11.7,16.8,16.9,26.9,9.5c-6.6,7.5-17,7.6-25.7-0.1c-0.1-0.1-0.2-0.1-0.3,0c-0.1,0.1-0.1,0.2-0.1,0.3
				c2.7,5.4,9.3,11.8,18.6,10.9c8.6-0.9,13.5-9,14.5-15.7c0.6,8.5-1.4,14.5-8.8,20.1c-0.1,0.1-0.1,0.2-0.1,0.3
				c0.1,0.1,0.2,0.2,0.3,0.1c6.8-2,12.2-5.4,15-12.5c0,6.2-2.1,12.4-7.5,16.5c-0.1,0.1-0.1,0.2-0.1,0.3s0.2,0.2,0.3,0.1
				c3.5-1,6.2-2.5,8.1-5.2c1.3,11.1,6.5,17.7,12.5,17.7c4.1,0,7.2-3,7.2-7.9C169.3-15.3,167.8-19.3,164.5-21.5z M263.7-113.1
				c-3.2-3.9-9.5-5.4-16.4-4c0.5-4.3-0.3-8.8-1.6-11.5c-0.1-0.1-0.2-0.2-0.3-0.1c-0.1,0-0.2,0.1-0.2,0.3c0.4,8.8-4.6,15.8-13.4,18.9
				c6.9-4.8,8.9-14.2,5.6-19.1c-0.1-0.1-0.2-0.1-0.3-0.1c-0.1,0-0.2,0.2-0.2,0.3c0.4,2.1-0.6,4.7-2.7,6.7c-2.9,2.8-6.8,3.5-8.8,1.4
				c-2-2-1.2-5.9,1.7-8.8c1.1-1,2.3-1.8,3.4-2.2c0.1,0,0.2-0.2,0.2-0.3c0-0.1-0.1-0.2-0.2-0.2c-6.4-0.6-10.8,3.3-13.5,7.9
				c-2.8,4.7-7.6,8.4-13.2,7.7c-0.1,0-0.2,0.1-0.3,0.2c0,0.1,0,0.2,0.1,0.3c2.8,1.7,5.9,2.4,9.9,1.1c-5.8,4.9-14,7.7-21.8,5.2
				c-0.1,0-0.2,0-0.3,0.1c-0.1,0.1-0.1,0.2,0,0.3c5.9,6.6,17.7,6.7,25.1,1.4c-3,4.3-7.1,7.5-14.3,8.5c-0.1,0-0.2,0.1-0.2,0.2
				c0,0.1,0.1,0.2,0.2,0.3c8.3,3.1,16.6,0,23.4-8.2c-3,6.4-7.9,11.5-14.8,14c-0.1,0-0.2,0.2-0.2,0.3c0,0.1,0.1,0.2,0.2,0.2
				c3.9,0.1,7.5-0.9,12.3-3.6c-3.5,5.7-2.7,15.6,2.4,22.3c0.1,0.1,0.2,0.1,0.3,0.1c0.1,0,0.2-0.2,0.1-0.3
				c-1.2-7.2,1.3-15.3,5.6-19.6c-2.2,7.6,0,14.6,5.9,19.6c0.1,0.1,0.2,0.1,0.3,0c0.1,0,0.1-0.1,0.2-0.2c1.2-9.4,11.8-19,20.6-19.8
				c0.1,0,0.2-0.1,0.2-0.2c0-0.1-0.1-0.2-0.2-0.3c-4.3-1-8.7-0.5-12.4,1c2.7-2.9,5.9-5.1,9.6-6.2c0.1,0,0.2-0.2,0.2-0.3
				c0-0.1-0.1-0.2-0.2-0.2c-4.5-0.3-8.9,1-12.7,3.5c4.4-6.6,11-11.5,19.4-13.5c0.1,0,0.2-0.1,0.2-0.3c0-0.1-0.1-0.2-0.2-0.2
				c-11.9-1.3-21.7,3.3-28.2,11.9c1.6-4.9,6.4-9.8,12.9-12.6c5.8-2.5,11.9-2.9,16.4-1.5c0.1,0,0.2,0,0.3-0.1
				C263.8-112.9,263.8-113,263.7-113.1z M210.8-37.5c4.8-10.5,4.5-18.7,0.6-29.1c0-0.1-0.2-0.2-0.3-0.2c-0.1,0-0.2,0.1-0.2,0.3
				c0.6,12.6-2.8,21.7-10.3,27.8c8.3-9.9,4.4-29.6-8.8-29.6c-9.6,0-17.5,8-19.5,17.5c0,0.1,0,0.2,0.2,0.3c0.1,0,0.2,0,0.3-0.1
				c2.8-4.8,7.4-7.9,12.5-7.9c8.1,0,10.5,6.5,10.5,11c0,6.2-4.9,11.3-8.7,11.3c-3.4,0-5-2.8-5-4.9c0-3.9,3-7.2,6.4-8.2
				c0.1,0,0.2-0.2,0.2-0.3c0-0.1-0.1-0.2-0.3-0.2c-4.1,0-7.6,1.9-9.6,5.6c-0.3-2.9-0.3-4.7,0.6-7.7c0-0.1,0-0.2-0.1-0.3
				c-0.1-0.1-0.2,0-0.3,0.1c-7.4,9.4-3.8,25.6,2,32.4c-5.5-4-10.4-12.6-10.3-24.4c0-0.1-0.1-0.2-0.2-0.3c-0.1,0-0.2,0-0.3,0.2
				c-4.1,10.3-1.9,29.2,9.3,39.9c-2.9,0.4-5.9,0.3-9.1-0.7c-0.1,0-0.2,0-0.3,0.1c-0.1,0.1,0,0.2,0.1,0.3c4.1,3.5,9.8,4.5,15.3,4.5
				c-4.7-5.5-3.1-16.6,4.4-16.6c5.3,0,7.8,8.3,3.6,12.8c-0.1,0.1-0.1,0.2,0,0.3c0.1,0.1,0.2,0.1,0.3,0.1c4.8-1.7,9.9-5.8,9.9-11
				c0-5-4.8-9.4-11.8-9.1c8.8-2.5,18.1,0.3,22.9,6.3c0.1,0.1,0.2,0.1,0.3,0.1c0.1-0.1,0.2-0.2,0.1-0.3c-2.8-10.7-12-15.2-23.4-13.7
				c9.3-3.8,23.3-0.5,29.4,7.3c0.1,0.1,0.2,0.1,0.3,0.1c0.1-0.1,0.2-0.2,0.1-0.3C220.1-30.6,216.6-35.6,210.8-37.5z"/>
			<path opacity="0.4" fill="#9DDCF9" d="M237.2-56.8c0,0.1-0.1,0.2-0.2,0.2c-12.9,0.1-24.8,3.3-34,11.5c8-5.6,22.9-7.5,31.5-3.6
				c0.1,0.1,0.2,0.2,0.1,0.3c0,0.1-0.1,0.2-0.3,0.2c-10.7-0.3-19.3,3-26,9c6.9,0.4,12.6,4.7,12.6,9.8c0,0.1-0.1,0.2-0.2,0.2
				c-0.1,0-0.2,0-0.3-0.1c-1.1-2.5-4.7-3.8-8.6-2.9c-4.2,1-7,4.2-6.3,7.2c0.5,2,2.4,3.4,5,3.8c0.1,0,0.2,0.1,0.2,0.3
				c0,0.1-0.1,0.2-0.2,0.2c-1.1,0.1-2.2,0.1-3.3,0c-6.5-0.6-11.5-4.6-11.9-9.2c-4.7,0.5-8.9,3.2-10.4,6.8c0,0.1-0.2,0.2-0.3,0.2
				c-0.1,0-0.2-0.1-0.2-0.2c-0.4-4.8,1.3-7.8,5-10.9c-5.4,2.1-11.4,2.2-17.3-0.5c-0.1-0.1-0.2-0.2-0.1-0.3c0-0.1,0.1-0.2,0.2-0.2
				c4.9-0.2,8.4-1.8,11.7-5.1c-18.3,5.1-33.1-6.2-28-23.1c0-0.1,0.1-0.2,0.3-0.2s0.2,0.1,0.2,0.2c0.9,9.7,7.7,16.1,17.9,17.1
				c-5.4-2.1-11-7-11.6-15.5c0-0.1,0.1-0.2,0.2-0.3c0.1,0,0.2,0,0.3,0.1c2.8,6.2,8.3,9.3,14.2,9.8c-6.3-2.6-10.4-8.6-11.6-16.4
				c0-0.1,0.1-0.2,0.2-0.3c0.1,0,0.2,0,0.3,0.1c3.9,7.6,12.2,12.8,22.4,8.8c10.6-4.1,15.3-16.4,16.3-25c0-0.1,0.1-0.2,0.2-0.2
				c0.1,0,0.2,0.1,0.3,0.2c3.7,15.7-3.6,31.9-16.6,38.8c7.1-2,13.4-6.3,17-13.4c8.3-1,14-3.9,16.9-9.2c0.1-0.1,0.2-0.2,0.3-0.1
				c0.1,0,0.2,0.1,0.2,0.3c-0.2,2.1-0.9,6.3-4.1,8.3c7,0,12.5,0.9,17.8,3C237.2-57,237.2-56.9,237.2-56.8z M207.7-110.3
				c0.1,0.1,0.2,0.1,0.3,0c0.1-0.1,0.1-0.2,0-0.3c-1.6-2.8-0.1-6.8,3.1-6.8c5.7,0,8.5,10.8,7.6,20.6c-2.2-5.8-4-8.1-7.3-10.8
				c-0.1-0.1-0.2-0.1-0.3,0c-0.1,0.1-0.1,0.2-0.1,0.3c4.9,9.1,5.9,16.1,5.9,24.1c-1.5-6-3.2-9.3-8.1-14.4c-0.1-0.1-0.2-0.1-0.3,0
				c-0.1,0.1-0.1,0.2-0.1,0.3c5.3,11.6,4.9,24.4,0.9,34.3c0,0.1,0,0.2,0.1,0.3c0.1,0.1,0.2,0.1,0.3,0c5.2-2.6,8.3-4.2,12.8-10.4
				c-1.4-7.4-0.2-11,3.2-17.2c-3.9,9.9-1.8,23.9,8.2,29.6c0.1,0.1,0.2,0,0.3-0.1c0.1-0.1,0.1-0.2,0-0.3c-3.8-4-6.5-10.6-4.2-17.9
				c-1.5,10.4,7.6,19.1,17.8,19.1c9.6,0,16.2-7.5,15.6-14.9c-0.5-7.4-5.4-11-9.7-12.5c-0.1,0-0.2,0-0.3,0.1c-0.1,0.1-0.1,0.2,0,0.3
				c5.6,5.7,6.4,16.5-3.6,19.8c5.9-5.1,3.7-16.8-5.7-17.7c-0.1,0-0.2,0.1-0.3,0.2c0,0.1,0,0.2,0.1,0.3c2,1.3,3.7,3.8,3.7,6.6
				c0,4.7-3.4,6.5-5.7,6.5c-3.4,0-6.3-3.3-6.3-8.2c0-5.8,5.3-10.7,12-11.4c6.6-0.7,12.8,2.2,15.8,6.5c0.1,0.1,0.2,0.1,0.3,0.1
				c0.1-0.1,0.2-0.2,0.1-0.3c-3-11.7-16.8-16.9-26.9-9.5c6.6-7.5,17-7.6,25.7,0.1c0.1,0.1,0.2,0.1,0.3,0c0.1-0.1,0.1-0.2,0.1-0.3
				c-2.7-5.4-9.3-11.8-18.6-10.9c-8.6,0.9-13.5,9-14.5,15.7c-0.6-8.5,1.4-14.5,8.8-20.1c0.1-0.1,0.1-0.2,0.1-0.3
				c-0.1-0.1-0.2-0.2-0.3-0.1c-6.8,2-12.2,5.4-15,12.5c0-6.2,2.1-12.4,7.5-16.5c0.1-0.1,0.1-0.2,0.1-0.3c-0.1-0.1-0.2-0.2-0.3-0.1
				c-3.5,1-6.2,2.5-8.1,5.2c-1.3-11.1-6.5-17.7-12.5-17.7c-4.1,0-7.2,3-7.2,7.9C202.9-116.5,204.4-112.5,207.7-110.3z M108.5-18.7
				c3.2,3.9,9.5,5.4,16.4,4c-0.5,4.3,0.3,8.8,1.6,11.5c0.1,0.1,0.2,0.2,0.3,0.1s0.2-0.1,0.2-0.3c-0.4-8.8,4.6-15.8,13.4-18.9
				c-6.9,4.8-8.9,14.2-5.6,19.1c0.1,0.1,0.2,0.1,0.3,0.1c0.1,0,0.2-0.2,0.2-0.3c-0.4-2.1,0.6-4.7,2.7-6.7c2.9-2.8,6.8-3.5,8.8-1.4
				c2,2,1.2,5.9-1.7,8.8c-1.1,1-2.3,1.8-3.4,2.2c-0.1,0-0.2,0.2-0.2,0.3c0,0.1,0.1,0.2,0.2,0.2c6.4,0.6,10.8-3.3,13.5-7.9
				c2.8-4.7,7.6-8.4,13.2-7.7c0.1,0,0.2-0.1,0.3-0.2c0-0.1,0-0.2-0.1-0.3c-2.8-1.7-5.9-2.4-9.9-1.1c5.8-4.9,14-7.7,21.8-5.2
				c0.1,0,0.2,0,0.3-0.1c0.1-0.1,0.1-0.2,0-0.3c-5.9-6.6-17.7-6.7-25.1-1.4c3-4.3,7.1-7.5,14.3-8.5c0.1,0,0.2-0.1,0.2-0.2
				c0-0.1-0.1-0.2-0.2-0.3c-8.3-3.1-16.6,0-23.4,8.2c3-6.4,7.9-11.5,14.8-14c0.1,0,0.2-0.2,0.2-0.3c0-0.1-0.1-0.2-0.2-0.2
				c-3.9-0.1-7.5,0.9-12.3,3.6c3.5-5.7,2.7-15.6-2.4-22.3c-0.1-0.1-0.2-0.1-0.3-0.1c-0.1,0-0.2,0.2-0.1,0.3
				c1.2,7.2-1.3,15.3-5.6,19.6c2.2-7.6,0-14.6-5.9-19.6c-0.1-0.1-0.2-0.1-0.3,0c-0.1,0-0.1,0.1-0.2,0.2c-1.2,9.4-11.8,19-20.6,19.8
				c-0.1,0-0.2,0.1-0.2,0.2c0,0.1,0.1,0.2,0.2,0.3c4.3,1,8.7,0.5,12.4-1c-2.7,2.9-5.9,5.1-9.6,6.2c-0.1,0-0.2,0.2-0.2,0.3
				c0,0.1,0.1,0.2,0.2,0.2c4.5,0.3,8.9-1,12.7-3.5c-4.4,6.6-11,11.5-19.4,13.5c-0.1,0-0.2,0.1-0.2,0.3c0,0.1,0.1,0.2,0.2,0.2
				c11.9,1.3,21.7-3.3,28.2-11.9c-1.6,4.9-6.4,9.8-12.9,12.6c-5.8,2.5-11.8,2.9-16.4,1.5c-0.1,0-0.2,0-0.3,0.1
				C108.4-18.9,108.4-18.7,108.5-18.7z M161.4-94.2c-4.8,10.5-4.5,18.7-0.6,29.1c0,0.1,0.2,0.2,0.3,0.2c0.1,0,0.2-0.1,0.2-0.3
				c-0.6-12.6,2.8-21.7,10.3-27.8c-8.3,9.9-4.4,29.6,8.8,29.6c9.6,0,17.5-8,19.5-17.5c0-0.1,0-0.2-0.2-0.3c-0.1,0-0.2,0-0.3,0.1
				c-2.8,4.8-7.4,7.9-12.5,7.9c-8.1,0-10.5-6.5-10.5-11c0-6.2,4.9-11.3,8.7-11.3c3.4,0,5,2.8,5,4.9c0,3.9-3,7.2-6.4,8.2
				c-0.1,0-0.2,0.2-0.2,0.3c0,0.1,0.1,0.2,0.3,0.2c4.1,0,7.6-1.9,9.6-5.6c0.3,2.9,0.3,4.7-0.6,7.7c0,0.1,0,0.2,0.1,0.3
				c0.1,0.1,0.2,0,0.3-0.1c7.4-9.4,3.8-25.6-2-32.4c5.5,4,10.4,12.6,10.3,24.4c0,0.1,0.1,0.2,0.2,0.3c0.1,0,0.2,0,0.3-0.2
				c4.1-10.3,1.9-29.2-9.3-39.9c2.9-0.4,5.9-0.3,9.1,0.7c0.1,0,0.2,0,0.3-0.1c0.1-0.1,0-0.2-0.1-0.3c-4.1-3.5-9.8-4.5-15.3-4.5
				c4.7,5.5,3.1,16.6-4.4,16.6c-5.3,0-7.8-8.3-3.6-12.8c0.1-0.1,0.1-0.2,0-0.3c-0.1-0.1-0.2-0.1-0.3-0.1c-4.8,1.7-9.9,5.8-9.9,11
				c0,5,4.8,9.4,11.8,9.1c-8.8,2.5-18.1-0.3-22.9-6.3c-0.1-0.1-0.2-0.1-0.3-0.1c-0.1,0.1-0.2,0.2-0.1,0.3
				c2.8,10.7,12,15.2,23.4,13.7c-9.3,3.8-23.3,0.5-29.4-7.3c-0.1-0.1-0.2-0.1-0.3-0.1c-0.1,0-0.2,0.2-0.1,0.3
				C152.2-101.1,155.7-96.2,161.4-94.2z"/>
		</g>
		<g>
			<path fill="#00427E" d="M26.7-74.9c0-0.1,0.1-0.2,0.2-0.2c12.9-0.1,24.8-3.3,34-11.5c-8,5.6-22.9,7.5-31.5,3.6
				c-0.1,0-0.2-0.2-0.1-0.3c0-0.1,0.1-0.2,0.3-0.2c10.7,0.3,19.3-3,26-9c-6.9-0.4-12.6-4.7-12.6-9.8c0-0.1,0.1-0.2,0.2-0.2
				c0.1,0,0.2,0,0.3,0.1c1.1,2.5,4.7,3.8,8.6,2.9c4.2-1,7-4.2,6.3-7.2c-0.5-2-2.4-3.4-5-3.8c-0.1,0-0.2-0.1-0.2-0.3
				c0-0.1,0.1-0.2,0.2-0.2c1.1-0.1,2.2-0.1,3.3,0c6.5,0.6,11.5,4.6,11.9,9.2c4.7-0.5,8.9-3.2,10.4-6.8c0-0.1,0.2-0.2,0.3-0.2
				c0.1,0,0.2,0.1,0.2,0.2c0.4,4.8-1.3,7.8-5,10.9c5.4-2.1,11.4-2.2,17.3,0.5c0.1,0,0.2,0.2,0.1,0.3c0,0.1-0.1,0.2-0.2,0.2
				c-4.9,0.2-8.4,1.8-11.7,5.1c18.3-5.1,33.1,6.2,28,23.1c0,0.1-0.1,0.2-0.3,0.2c-0.1,0-0.2-0.1-0.2-0.2
				c-0.9-9.7-7.7-16.1-17.9-17.1c5.4,2.1,11,7,11.6,15.5c0,0.1-0.1,0.2-0.2,0.3c-0.1,0-0.2,0-0.3-0.1c-2.8-6.2-8.3-9.3-14.2-9.8
				c6.3,2.6,10.4,8.6,11.6,16.4c0,0.1-0.1,0.2-0.2,0.3c-0.1,0-0.2,0-0.3-0.1c-3.9-7.6-12.2-12.8-22.4-8.8C64.5-68,59.8-55.7,58.8-47
				c0,0.1-0.1,0.2-0.2,0.2c-0.1,0-0.2-0.1-0.3-0.2c-3.7-15.7,3.6-31.9,16.6-38.8c-7.1,2-13.4,6.3-17,13.4c-8.3,1-14,3.9-16.9,9.2
				c-0.1,0.1-0.2,0.2-0.3,0.1c-0.1,0-0.2-0.1-0.2-0.3c0.2-2.1,0.9-6.3,4.1-8.3c-7,0-12.5-0.9-17.8-3C26.7-74.7,26.7-74.8,26.7-74.9z
				 M56.2-21.5c-0.1-0.1-0.2-0.1-0.3,0c-0.1,0.1-0.1,0.2,0,0.3c1.6,2.8,0.1,6.8-3.1,6.8c-5.7,0-8.5-10.8-7.6-20.6
				c2.2,5.8,4,8.1,7.3,10.8c0.1,0.1,0.2,0.1,0.3,0c0.1-0.1,0.1-0.2,0.1-0.3C48.1-33.5,47-40.5,47-48.5c1.5,6,3.2,9.3,8.1,14.4
				c0.1,0.1,0.2,0.1,0.3,0c0.1-0.1,0.1-0.2,0.1-0.3c-5.3-11.6-4.9-24.4-0.9-34.3c0-0.1,0-0.2-0.1-0.3c-0.1-0.1-0.2-0.1-0.3,0
				c-5.2,2.6-8.3,4.2-12.8,10.4c1.4,7.4,0.2,11-3.2,17.2c3.9-9.9,1.8-23.9-8.2-29.6c-0.1-0.1-0.2,0-0.3,0.1c-0.1,0.1-0.1,0.2,0,0.3
				c3.8,4,6.5,10.6,4.2,17.9c1.5-10.4-7.6-19.1-17.8-19.1c-9.6,0-16.2,7.5-15.6,14.9c0.5,7.4,5.4,11,9.7,12.5c0.1,0,0.2,0,0.3-0.1
				c0.1-0.1,0-0.2,0-0.3c-5.6-5.7-6.4-16.5,3.6-19.8c-5.9,5.1-3.7,16.8,5.7,17.7c0.1,0,0.2-0.1,0.3-0.2c0-0.1,0-0.2-0.1-0.3
				c-2-1.3-3.7-3.8-3.7-6.6c0-4.7,3.4-6.5,5.7-6.5c3.4,0,6.3,3.3,6.3,8.2c0,5.8-5.3,10.7-12,11.4C9.6-40,3.4-42.9,0.5-47.2
				c-0.1-0.1-0.2-0.1-0.3-0.1C0-47.3,0-47.1,0-47c3,11.7,16.8,16.9,26.9,9.5c-6.6,7.5-17,7.6-25.7-0.1c-0.1-0.1-0.2-0.1-0.3,0
				c-0.1,0.1-0.1,0.2-0.1,0.3c2.7,5.4,9.3,11.8,18.6,10.9c8.6-0.9,13.5-9,14.5-15.7c0.6,8.5-1.4,14.5-8.8,20.1
				c-0.1,0.1-0.1,0.2-0.1,0.3c0.1,0.1,0.2,0.2,0.3,0.1c6.8-2,12.2-5.4,15-12.5c0,6.2-2.1,12.4-7.5,16.5c-0.1,0.1-0.1,0.2-0.1,0.3
				c0.1,0.1,0.2,0.2,0.3,0.1c3.5-1,6.2-2.5,8.1-5.2c1.3,11.1,6.5,17.7,12.5,17.7c4.1,0,7.2-3,7.2-7.9C61-15.3,59.5-19.3,56.2-21.5z
				 M155.4-113.1c-3.2-3.9-9.5-5.4-16.4-4c0.5-4.3-0.3-8.8-1.6-11.5c-0.1-0.1-0.2-0.2-0.3-0.1c-0.1,0-0.2,0.1-0.2,0.3
				c0.4,8.8-4.6,15.8-13.4,18.9c6.9-4.8,8.9-14.2,5.6-19.1c-0.1-0.1-0.2-0.1-0.3-0.1c-0.1,0-0.2,0.2-0.2,0.3
				c0.4,2.1-0.6,4.7-2.7,6.7c-2.9,2.8-6.8,3.5-8.8,1.4c-2-2-1.2-5.9,1.7-8.8c1.1-1,2.3-1.8,3.4-2.2c0.1,0,0.2-0.2,0.2-0.3
				c0-0.1-0.1-0.2-0.2-0.2c-6.4-0.6-10.8,3.3-13.5,7.9c-2.8,4.7-7.6,8.4-13.2,7.7c-0.1,0-0.2,0.1-0.3,0.2c0,0.1,0,0.2,0.1,0.3
				c2.8,1.7,5.9,2.4,9.9,1.1c-5.8,4.9-14,7.7-21.8,5.2c-0.1,0-0.2,0-0.3,0.1c-0.1,0.1-0.1,0.2,0,0.3c5.9,6.6,17.7,6.7,25.1,1.4
				c-3,4.3-7.1,7.5-14.3,8.5c-0.1,0-0.2,0.1-0.2,0.2c0,0.1,0.1,0.2,0.2,0.3c8.3,3.1,16.6,0,23.4-8.2c-3,6.4-7.9,11.5-14.8,14
				c-0.1,0-0.2,0.2-0.2,0.3c0,0.1,0.1,0.2,0.2,0.2c3.9,0.1,7.5-0.9,12.3-3.6c-3.5,5.7-2.7,15.6,2.4,22.3c0.1,0.1,0.2,0.1,0.3,0.1
				c0.1,0,0.2-0.2,0.1-0.3c-1.2-7.2,1.3-15.3,5.6-19.6c-2.2,7.6,0,14.6,5.9,19.6c0.1,0.1,0.2,0.1,0.3,0c0.1,0,0.1-0.1,0.2-0.2
				c1.2-9.4,11.8-19,20.6-19.8c0.1,0,0.2-0.1,0.2-0.2c0-0.1-0.1-0.2-0.2-0.3c-4.3-1-8.7-0.5-12.4,1c2.7-2.9,5.9-5.1,9.6-6.2
				c0.1,0,0.2-0.2,0.2-0.3c0-0.1-0.1-0.2-0.2-0.2c-4.5-0.3-8.9,1-12.7,3.5c4.4-6.6,11-11.5,19.4-13.5c0.1,0,0.2-0.1,0.2-0.3
				c0-0.1-0.1-0.2-0.2-0.2c-11.9-1.3-21.7,3.3-28.2,11.9c1.6-4.9,6.4-9.8,12.9-12.6c5.8-2.5,11.8-2.9,16.4-1.5c0.1,0,0.2,0,0.3-0.1
				C155.5-112.9,155.5-113,155.4-113.1z M102.5-37.5c4.8-10.5,4.5-18.7,0.6-29.1c0-0.1-0.2-0.2-0.3-0.2c-0.1,0-0.2,0.1-0.2,0.3
				c0.6,12.6-2.8,21.7-10.3,27.8c8.3-9.9,4.4-29.6-8.8-29.6c-9.6,0-17.5,8-19.5,17.5c0,0.1,0,0.2,0.2,0.3c0.1,0,0.2,0,0.3-0.1
				c2.8-4.8,7.4-7.9,12.5-7.9c8.1,0,10.5,6.5,10.5,11c0,6.2-4.9,11.3-8.7,11.3c-3.4,0-5-2.8-5-4.9c0-3.9,3-7.2,6.4-8.2
				c0.1,0,0.2-0.2,0.2-0.3c0-0.1-0.1-0.2-0.3-0.2c-4.1,0-7.6,1.9-9.6,5.6c-0.3-2.9-0.3-4.7,0.6-7.7c0-0.1,0-0.2-0.1-0.3
				c-0.1-0.1-0.2,0-0.3,0.1c-7.4,9.4-3.8,25.6,2,32.4c-5.5-4-10.4-12.6-10.3-24.4c0-0.1-0.1-0.2-0.2-0.3c-0.1,0-0.2,0-0.3,0.2
				c-4.1,10.3-1.9,29.2,9.3,39.9c-2.9,0.4-5.9,0.3-9.1-0.7c-0.1,0-0.2,0-0.3,0.1c-0.1,0.1,0,0.2,0.1,0.3C65.8-1.1,71.5,0,77,0
				c-4.7-5.5-3.1-16.6,4.4-16.6c5.3,0,7.8,8.3,3.6,12.8c-0.1,0.1-0.1,0.2,0,0.3c0.1,0.1,0.2,0.1,0.3,0.1c4.8-1.7,9.9-5.8,9.9-11
				c0-5-4.8-9.4-11.8-9.1c8.8-2.5,18.1,0.3,22.9,6.3c0.1,0.1,0.2,0.1,0.3,0.1c0.1-0.1,0.2-0.2,0.1-0.3c-2.8-10.7-12-15.2-23.4-13.7
				c9.3-3.8,23.2-0.5,29.4,7.3c0.1,0.1,0.2,0.1,0.3,0.1c0.1-0.1,0.2-0.2,0.1-0.3C111.8-30.6,108.3-35.6,102.5-37.5z"/>
			<path opacity="0.4" fill="#9DDCF9" d="M128.9-56.8c0,0.1-0.1,0.2-0.2,0.2c-12.9,0.1-24.8,3.3-34,11.5c8-5.6,22.9-7.5,31.5-3.6
				c0.1,0.1,0.2,0.2,0.1,0.3c0,0.1-0.1,0.2-0.3,0.2c-10.7-0.3-19.3,3-26,9c6.9,0.4,12.6,4.7,12.6,9.8c0,0.1-0.1,0.2-0.2,0.2
				c-0.1,0-0.2,0-0.3-0.1c-1.1-2.5-4.7-3.8-8.6-2.9c-4.2,1-7,4.2-6.3,7.2c0.5,2,2.4,3.4,5,3.8c0.1,0,0.2,0.1,0.2,0.3
				c0,0.1-0.1,0.2-0.2,0.2c-1.1,0.1-2.2,0.1-3.3,0c-6.5-0.6-11.5-4.6-11.9-9.2c-4.7,0.5-8.9,3.2-10.4,6.8c0,0.1-0.2,0.2-0.3,0.2
				c-0.1,0-0.2-0.1-0.2-0.2c-0.4-4.8,1.3-7.8,5-10.9c-5.4,2.1-11.4,2.2-17.3-0.5c-0.1-0.1-0.2-0.2-0.1-0.3c0-0.1,0.1-0.2,0.2-0.2
				c4.9-0.2,8.4-1.8,11.7-5.1c-18.3,5.1-33.1-6.2-28-23.1c0-0.1,0.1-0.2,0.3-0.2c0.1,0,0.2,0.1,0.2,0.2C49.1-53.4,55.9-47,66-46.1
				c-5.4-2.1-11-7-11.6-15.5c0-0.1,0.1-0.2,0.2-0.3c0.1,0,0.2,0,0.3,0.1c2.8,6.2,8.3,9.3,14.2,9.8c-6.3-2.6-10.4-8.6-11.6-16.4
				c0-0.1,0.1-0.2,0.2-0.3c0.1,0,0.2,0,0.3,0.1c3.9,7.6,12.2,12.8,22.4,8.8c10.6-4.1,15.3-16.4,16.3-25c0-0.1,0.1-0.2,0.2-0.2
				c0.1,0,0.2,0.1,0.3,0.2c3.7,15.7-3.6,31.9-16.6,38.8c7.1-2,13.4-6.3,17-13.4c8.3-1,14-3.9,16.9-9.2c0.1-0.1,0.2-0.2,0.3-0.1
				c0.1,0,0.2,0.1,0.2,0.3c-0.2,2.1-0.9,6.3-4.1,8.3c7,0,12.5,0.9,17.8,3C128.8-57,128.9-56.9,128.9-56.8z M99.4-110.3
				c0.1,0.1,0.2,0.1,0.3,0c0.1-0.1,0.1-0.2,0-0.3c-1.6-2.8-0.1-6.8,3.1-6.8c5.7,0,8.5,10.8,7.6,20.6c-2.2-5.8-4-8.1-7.3-10.8
				c-0.1-0.1-0.2-0.1-0.3,0c-0.1,0.1-0.1,0.2-0.1,0.3c4.9,9.1,5.9,16.1,5.9,24.1c-1.5-6-3.2-9.3-8.1-14.4c-0.1-0.1-0.2-0.1-0.3,0
				c-0.1,0.1-0.1,0.2-0.1,0.3c5.3,11.6,4.9,24.4,0.9,34.3c0,0.1,0,0.2,0.1,0.3c0.1,0.1,0.2,0.1,0.3,0c5.2-2.6,8.3-4.2,12.8-10.4
				c-1.4-7.4-0.2-11,3.2-17.2c-3.9,9.9-1.8,23.9,8.2,29.6c0.1,0.1,0.2,0,0.3-0.1c0.1-0.1,0.1-0.2,0-0.3c-3.8-4-6.5-10.6-4.2-17.9
				c-1.5,10.4,7.6,19.1,17.8,19.1c9.6,0,16.2-7.5,15.6-14.9c-0.5-7.4-5.4-11-9.7-12.5c-0.1,0-0.2,0-0.3,0.1c-0.1,0.1-0.1,0.2,0,0.3
				c5.6,5.7,6.4,16.5-3.6,19.8c5.9-5.1,3.7-16.8-5.7-17.7c-0.1,0-0.2,0.1-0.3,0.2c0,0.1,0,0.2,0.1,0.3c2,1.3,3.7,3.8,3.7,6.6
				c0,4.7-3.4,6.5-5.7,6.5c-3.4,0-6.3-3.3-6.3-8.2c0-5.8,5.3-10.7,12-11.4c6.6-0.7,12.8,2.2,15.8,6.5c0.1,0.1,0.2,0.1,0.3,0.1
				c0.1-0.1,0.2-0.2,0.1-0.3c-3-11.7-16.8-16.9-26.9-9.5c6.6-7.5,17-7.6,25.7,0.1c0.1,0.1,0.2,0.1,0.3,0c0.1-0.1,0.1-0.2,0.1-0.3
				c-2.7-5.4-9.3-11.8-18.6-10.9c-8.6,0.9-13.5,9-14.5,15.7c-0.6-8.5,1.4-14.5,8.8-20.1c0.1-0.1,0.1-0.2,0.1-0.3
				c-0.1-0.1-0.2-0.2-0.3-0.1c-6.8,2-12.2,5.4-15,12.5c0-6.2,2.1-12.4,7.5-16.5c0.1-0.1,0.1-0.2,0.1-0.3c-0.1-0.1-0.2-0.2-0.3-0.1
				c-3.5,1-6.2,2.5-8.1,5.2c-1.3-11.1-6.5-17.7-12.5-17.7c-4.1,0-7.2,3-7.2,7.9C94.6-116.5,96.1-112.5,99.4-110.3z M0.2-18.7
				c3.2,3.9,9.5,5.4,16.4,4c-0.5,4.3,0.3,8.8,1.6,11.5C18.3-3.1,18.4-3,18.5-3c0.1,0,0.2-0.1,0.2-0.3c-0.4-8.8,4.6-15.8,13.4-18.9
				C25.2-17.5,23.2-8,26.5-3.2c0.1,0.1,0.2,0.1,0.3,0.1c0.1,0,0.2-0.2,0.2-0.3c-0.4-2.1,0.6-4.7,2.7-6.7c2.9-2.8,6.8-3.5,8.8-1.4
				c2,2,1.2,5.9-1.7,8.8c-1.1,1-2.3,1.8-3.4,2.2c-0.1,0-0.2,0.2-0.2,0.3c0,0.1,0.1,0.2,0.2,0.2c6.4,0.6,10.8-3.3,13.5-7.9
				c2.8-4.7,7.6-8.4,13.2-7.7c0.1,0,0.2-0.1,0.3-0.2c0-0.1,0-0.2-0.1-0.3c-2.8-1.7-5.9-2.4-9.9-1.1c5.8-4.9,14-7.7,21.8-5.2
				c0.1,0,0.2,0,0.3-0.1c0.1-0.1,0.1-0.2,0-0.3c-5.9-6.6-17.7-6.7-25.1-1.4c3-4.3,7.1-7.5,14.3-8.5c0.1,0,0.2-0.1,0.2-0.2
				c0-0.1-0.1-0.2-0.2-0.3c-8.3-3.1-16.6,0-23.4,8.2c3-6.4,7.9-11.5,14.8-14c0.1,0,0.2-0.2,0.2-0.3c0-0.1-0.1-0.2-0.2-0.2
				c-3.9-0.1-7.5,0.9-12.3,3.6c3.5-5.7,2.7-15.6-2.4-22.3c-0.1-0.1-0.2-0.1-0.3-0.1c-0.1,0-0.2,0.2-0.1,0.3
				c1.2,7.2-1.3,15.3-5.6,19.6c2.2-7.6,0-14.6-5.9-19.6c-0.1-0.1-0.2-0.1-0.3,0c-0.1,0-0.1,0.1-0.2,0.2c-1.2,9.4-11.8,19-20.6,19.8
				c-0.1,0-0.2,0.1-0.2,0.2c0,0.1,0.1,0.2,0.2,0.3c4.3,1,8.7,0.5,12.4-1c-2.7,2.9-5.9,5.1-9.6,6.2C8.1-32.2,8-32.1,8-32
				c0,0.1,0.1,0.2,0.2,0.2c4.5,0.3,8.9-1,12.7-3.5c-4.4,6.6-11,11.5-19.4,13.5c-0.1,0-0.2,0.1-0.2,0.3c0,0.1,0.1,0.2,0.2,0.2
				c11.9,1.3,21.7-3.3,28.2-11.9c-1.6,4.9-6.4,9.8-12.9,12.6C11-18,5-17.6,0.4-19.1c-0.1,0-0.2,0-0.3,0.1
				C0.1-18.9,0.1-18.7,0.2-18.7z M53.1-94.2c-4.8,10.5-4.5,18.7-0.6,29.1c0,0.1,0.2,0.2,0.3,0.2c0.1,0,0.2-0.1,0.2-0.3
				c-0.6-12.6,2.8-21.7,10.3-27.8c-8.3,9.9-4.4,29.6,8.8,29.6c9.6,0,17.5-8,19.5-17.5c0-0.1,0-0.2-0.2-0.3c-0.1,0-0.2,0-0.3,0.1
				c-2.8,4.8-7.4,7.9-12.5,7.9c-8.1,0-10.5-6.5-10.5-11c0-6.2,4.9-11.3,8.7-11.3c3.4,0,5,2.8,5,4.9c0,3.9-3,7.2-6.4,8.2
				c-0.1,0-0.2,0.2-0.2,0.3s0.1,0.2,0.3,0.2c4.1,0,7.6-1.9,9.6-5.6c0.3,2.9,0.3,4.7-0.6,7.7c0,0.1,0,0.2,0.1,0.3
				c0.1,0.1,0.2,0,0.3-0.1c7.4-9.4,3.8-25.6-2-32.4c5.5,4,10.4,12.6,10.3,24.4c0,0.1,0.1,0.2,0.2,0.3c0.1,0,0.2,0,0.3-0.2
				c4.1-10.3,1.9-29.2-9.3-39.9c2.9-0.4,5.9-0.3,9.1,0.7c0.1,0,0.2,0,0.3-0.1c0.1-0.1,0-0.2-0.1-0.3c-4.1-3.5-9.8-4.5-15.3-4.5
				c4.7,5.5,3.1,16.6-4.4,16.6c-5.3,0-7.8-8.3-3.6-12.8c0.1-0.1,0.1-0.2,0-0.3c-0.1-0.1-0.2-0.1-0.3-0.1c-4.8,1.7-9.9,5.8-9.9,11
				c0,5,4.8,9.4,11.8,9.1c-8.8,2.5-18.1-0.3-22.9-6.3c-0.1-0.1-0.2-0.1-0.3-0.1c-0.1,0.1-0.2,0.2-0.1,0.3
				c2.8,10.7,12,15.2,23.4,13.7c-9.3,3.8-23.3,0.5-29.4-7.3c-0.1-0.1-0.2-0.1-0.3-0.1c-0.1,0-0.2,0.2-0.1,0.3
				C43.8-101.1,47.3-96.2,53.1-94.2z"/>
		</g>
		<g>
			<path fill="#00427E" d="M135-184.6c0-0.1,0.1-0.2,0.2-0.2c12.9-0.1,24.8-3.3,34-11.5c-8,5.6-22.9,7.5-31.5,3.6
				c-0.1,0-0.2-0.2-0.1-0.3c0-0.1,0.1-0.2,0.3-0.2c10.7,0.3,19.3-3,26-9c-6.9-0.4-12.6-4.7-12.6-9.8c0-0.1,0.1-0.2,0.2-0.2
				c0.1,0,0.2,0,0.3,0.1c1.1,2.5,4.7,3.8,8.6,2.9c4.2-1,7-4.2,6.3-7.2c-0.5-2-2.4-3.4-5-3.8c-0.1,0-0.2-0.1-0.2-0.3
				c0-0.1,0.1-0.2,0.2-0.2c1.1-0.1,2.2-0.1,3.3,0c6.5,0.6,11.5,4.6,11.9,9.2c4.7-0.5,8.9-3.2,10.4-6.8c0-0.1,0.2-0.2,0.3-0.2
				c0.1,0,0.2,0.1,0.2,0.2c0.4,4.8-1.3,7.8-5,10.9c5.4-2.1,11.4-2.2,17.3,0.5c0.1,0,0.2,0.2,0.1,0.3c0,0.1-0.1,0.2-0.2,0.2
				c-4.9,0.2-8.4,1.8-11.7,5.1c18.3-5.1,33.1,6.2,28,23.1c0,0.1-0.1,0.2-0.3,0.2c-0.1,0-0.2-0.1-0.2-0.2
				c-0.9-9.7-7.7-16.1-17.9-17.1c5.4,2.1,11,7,11.6,15.5c0,0.1-0.1,0.2-0.2,0.3c-0.1,0-0.2,0-0.3-0.1c-2.8-6.2-8.3-9.3-14.2-9.8
				c6.3,2.6,10.4,8.6,11.6,16.4c0,0.1-0.1,0.2-0.2,0.3c-0.1,0-0.2,0-0.3-0.1c-3.9-7.6-12.2-12.8-22.4-8.8
				c-10.6,4.1-15.3,16.4-16.3,25c0,0.1-0.1,0.2-0.2,0.2c-0.1,0-0.2-0.1-0.3-0.2c-3.7-15.7,3.6-31.9,16.6-38.8
				c-7.1,2-13.4,6.3-17,13.4c-8.3,1-14,3.9-16.9,9.2c-0.1,0.1-0.2,0.2-0.3,0.1c-0.1,0-0.2-0.1-0.2-0.3c0.2-2.1,0.9-6.3,4.1-8.3
				c-7,0-12.5-0.9-17.8-3C135.1-184.3,135-184.5,135-184.6z M164.5-131.1c-0.1-0.1-0.2-0.1-0.3,0c-0.1,0.1-0.1,0.2,0,0.3
				c1.6,2.8,0.1,6.8-3.1,6.8c-5.7,0-8.5-10.8-7.6-20.6c2.2,5.8,4,8.1,7.3,10.8c0.1,0.1,0.2,0.1,0.3,0c0.1-0.1,0.1-0.2,0.1-0.3
				c-4.9-9.1-5.9-16.1-5.9-24.1c1.5,6,3.2,9.3,8.1,14.4c0.1,0.1,0.2,0.1,0.3,0c0.1-0.1,0.1-0.2,0.1-0.3c-5.3-11.6-4.9-24.4-0.9-34.3
				c0-0.1,0-0.2-0.1-0.3c-0.1-0.1-0.2-0.1-0.3,0c-5.2,2.6-8.3,4.2-12.8,10.4c1.4,7.4,0.2,11-3.2,17.2c3.9-9.9,1.8-23.9-8.2-29.6
				c-0.1-0.1-0.2,0-0.3,0.1c-0.1,0.1-0.1,0.2,0,0.3c3.8,4,6.5,10.6,4.2,17.9c1.5-10.4-7.6-19.1-17.8-19.1c-9.6,0-16.2,7.5-15.6,14.9
				c0.5,7.4,5.4,11,9.7,12.5c0.1,0,0.2,0,0.3-0.1c0.1-0.1,0-0.2,0-0.3c-5.6-5.7-6.4-16.5,3.6-19.8c-5.9,5.1-3.7,16.8,5.7,17.7
				c0.1,0,0.2-0.1,0.3-0.2c0-0.1,0-0.2-0.1-0.3c-2-1.3-3.7-3.8-3.7-6.6c0-4.7,3.4-6.5,5.7-6.5c3.4,0,6.3,3.3,6.3,8.2
				c0,5.8-5.3,10.7-12,11.4c-6.6,0.7-12.8-2.2-15.8-6.5c-0.1-0.1-0.2-0.1-0.3-0.1c-0.1,0.1-0.2,0.2-0.1,0.3
				c3,11.7,16.8,16.9,26.9,9.5c-6.6,7.5-17,7.6-25.7-0.1c-0.1-0.1-0.2-0.1-0.3,0c-0.1,0.1-0.1,0.2-0.1,0.3
				c2.7,5.4,9.3,11.8,18.6,10.9c8.6-0.9,13.5-9,14.5-15.7c0.6,8.5-1.4,14.5-8.8,20.1c-0.1,0.1-0.1,0.2-0.1,0.3
				c0.1,0.1,0.2,0.2,0.3,0.1c6.8-2,12.2-5.4,15-12.5c0,6.2-2.1,12.4-7.5,16.5c-0.1,0.1-0.1,0.2-0.1,0.3s0.2,0.2,0.3,0.1
				c3.5-1,6.2-2.5,8.1-5.2c1.3,11.1,6.5,17.7,12.5,17.7c4.1,0,7.2-3,7.2-7.9C169.3-124.9,167.8-128.9,164.5-131.1z M263.7-222.7
				c-3.2-3.9-9.5-5.4-16.4-4c0.5-4.3-0.3-8.8-1.6-11.5c-0.1-0.1-0.2-0.2-0.3-0.1c-0.1,0-0.2,0.1-0.2,0.3c0.4,8.8-4.6,15.8-13.4,18.9
				c6.9-4.8,8.9-14.2,5.6-19.1c-0.1-0.1-0.2-0.1-0.3-0.1c-0.1,0-0.2,0.2-0.2,0.3c0.4,2.1-0.6,4.7-2.7,6.7c-2.9,2.8-6.8,3.5-8.8,1.4
				c-2-2-1.2-5.9,1.7-8.8c1.1-1,2.3-1.8,3.4-2.2c0.1,0,0.2-0.2,0.2-0.3c0-0.1-0.1-0.2-0.2-0.2c-6.4-0.6-10.8,3.3-13.5,7.9
				c-2.8,4.7-7.6,8.4-13.2,7.7c-0.1,0-0.2,0.1-0.3,0.2c0,0.1,0,0.2,0.1,0.3c2.8,1.7,5.9,2.4,9.9,1.1c-5.8,4.9-14,7.7-21.8,5.2
				c-0.1,0-0.2,0-0.3,0.1c-0.1,0.1-0.1,0.2,0,0.3c5.9,6.6,17.7,6.7,25.1,1.4c-3,4.3-7.1,7.5-14.3,8.5c-0.1,0-0.2,0.1-0.2,0.2
				c0,0.1,0.1,0.2,0.2,0.3c8.3,3.1,16.6,0,23.4-8.2c-3,6.4-7.9,11.5-14.8,14c-0.1,0-0.2,0.2-0.2,0.3c0,0.1,0.1,0.2,0.2,0.2
				c3.9,0.1,7.5-0.9,12.3-3.6c-3.5,5.7-2.7,15.6,2.4,22.3c0.1,0.1,0.2,0.1,0.3,0.1c0.1,0,0.2-0.2,0.1-0.3
				c-1.2-7.2,1.3-15.3,5.6-19.6c-2.2,7.6,0,14.6,5.9,19.6c0.1,0.1,0.2,0.1,0.3,0c0.1,0,0.1-0.1,0.2-0.2c1.2-9.4,11.8-19,20.6-19.8
				c0.1,0,0.2-0.1,0.2-0.2c0-0.1-0.1-0.2-0.2-0.3c-4.3-1-8.7-0.5-12.4,1c2.7-2.9,5.9-5.1,9.6-6.2c0.1,0,0.2-0.2,0.2-0.3
				c0-0.1-0.1-0.2-0.2-0.2c-4.5-0.3-8.9,1-12.7,3.5c4.4-6.6,11-11.5,19.4-13.5c0.1,0,0.2-0.1,0.2-0.3c0-0.1-0.1-0.2-0.2-0.2
				c-11.9-1.3-21.7,3.3-28.2,11.9c1.6-4.9,6.4-9.8,12.9-12.6c5.8-2.5,11.9-2.9,16.4-1.5c0.1,0,0.2,0,0.3-0.1
				C263.8-222.5,263.8-222.6,263.7-222.7z M210.8-147.2c4.8-10.5,4.5-18.7,0.6-29.1c0-0.1-0.2-0.2-0.3-0.2c-0.1,0-0.2,0.1-0.2,0.3
				c0.6,12.6-2.8,21.7-10.3,27.8c8.3-9.9,4.4-29.6-8.8-29.6c-9.6,0-17.5,8-19.5,17.5c0,0.1,0,0.2,0.2,0.3c0.1,0,0.2,0,0.3-0.1
				c2.8-4.8,7.4-7.9,12.5-7.9c8.1,0,10.5,6.5,10.5,11c0,6.2-4.9,11.3-8.7,11.3c-3.4,0-5-2.8-5-4.9c0-3.9,3-7.2,6.4-8.2
				c0.1,0,0.2-0.2,0.2-0.3c0-0.1-0.1-0.2-0.3-0.2c-4.1,0-7.6,1.9-9.6,5.6c-0.3-2.9-0.3-4.7,0.6-7.7c0-0.1,0-0.2-0.1-0.3
				c-0.1-0.1-0.2,0-0.3,0.1c-7.4,9.4-3.8,25.6,2,32.4c-5.5-4-10.4-12.6-10.3-24.4c0-0.1-0.1-0.2-0.2-0.3c-0.1,0-0.2,0-0.3,0.2
				c-4.1,10.3-1.9,29.2,9.3,39.9c-2.9,0.4-5.9,0.3-9.1-0.7c-0.1,0-0.2,0-0.3,0.1c-0.1,0.1,0,0.2,0.1,0.3c4.1,3.5,9.8,4.5,15.3,4.5
				c-4.7-5.5-3.1-16.6,4.4-16.6c5.3,0,7.8,8.3,3.6,12.8c-0.1,0.1-0.1,0.2,0,0.3c0.1,0.1,0.2,0.1,0.3,0.1c4.8-1.7,9.9-5.8,9.9-11
				c0-5-4.8-9.4-11.8-9.1c8.8-2.5,18.1,0.3,22.9,6.3c0.1,0.1,0.2,0.1,0.3,0.1c0.1-0.1,0.2-0.2,0.1-0.3c-2.8-10.7-12-15.2-23.4-13.7
				c9.3-3.8,23.3-0.5,29.4,7.3c0.1,0.1,0.2,0.1,0.3,0.1c0.1-0.1,0.2-0.2,0.1-0.3C220.1-140.3,216.6-145.2,210.8-147.2z"/>
			<path opacity="0.4" fill="#9DDCF9" d="M237.2-166.5c0,0.1-0.1,0.2-0.2,0.2c-12.9,0.1-24.8,3.3-34,11.5c8-5.6,22.9-7.5,31.5-3.6
				c0.1,0.1,0.2,0.2,0.1,0.3c0,0.1-0.1,0.2-0.3,0.2c-10.7-0.3-19.3,3-26,9c6.9,0.4,12.6,4.7,12.6,9.8c0,0.1-0.1,0.2-0.2,0.2
				c-0.1,0-0.2,0-0.3-0.1c-1.1-2.5-4.7-3.8-8.6-2.9c-4.2,1-7,4.2-6.3,7.2c0.5,2,2.4,3.4,5,3.8c0.1,0,0.2,0.1,0.2,0.3
				c0,0.1-0.1,0.2-0.2,0.2c-1.1,0.1-2.2,0.1-3.3,0c-6.5-0.6-11.5-4.6-11.9-9.2c-4.7,0.5-8.9,3.2-10.4,6.8c0,0.1-0.2,0.2-0.3,0.2
				c-0.1,0-0.2-0.1-0.2-0.2c-0.4-4.8,1.3-7.8,5-10.9c-5.4,2.1-11.4,2.2-17.3-0.5c-0.1-0.1-0.2-0.2-0.1-0.3c0-0.1,0.1-0.2,0.2-0.2
				c4.9-0.2,8.4-1.8,11.7-5.1c-18.3,5.1-33.1-6.2-28-23.1c0-0.1,0.1-0.2,0.3-0.2s0.2,0.1,0.2,0.2c0.9,9.7,7.7,16.1,17.9,17.1
				c-5.4-2.1-11-7-11.6-15.5c0-0.1,0.1-0.2,0.2-0.3c0.1,0,0.2,0,0.3,0.1c2.8,6.2,8.3,9.3,14.2,9.8c-6.3-2.6-10.4-8.6-11.6-16.4
				c0-0.1,0.1-0.2,0.2-0.3c0.1,0,0.2,0,0.3,0.1c3.9,7.6,12.2,12.8,22.4,8.8c10.6-4.1,15.3-16.4,16.3-25c0-0.1,0.1-0.2,0.2-0.2
				c0.1,0,0.2,0.1,0.3,0.2c3.7,15.7-3.6,31.9-16.6,38.8c7.1-2,13.4-6.3,17-13.4c8.3-1,14-3.9,16.9-9.2c0.1-0.1,0.2-0.2,0.3-0.1
				c0.1,0,0.2,0.1,0.2,0.3c-0.2,2.1-0.9,6.3-4.1,8.3c7,0,12.5,0.9,17.8,3C237.2-166.7,237.2-166.6,237.2-166.5z M207.7-219.9
				c0.1,0.1,0.2,0.1,0.3,0c0.1-0.1,0.1-0.2,0-0.3c-1.6-2.8-0.1-6.8,3.1-6.8c5.7,0,8.5,10.8,7.6,20.6c-2.2-5.8-4-8.1-7.3-10.8
				c-0.1-0.1-0.2-0.1-0.3,0c-0.1,0.1-0.1,0.2-0.1,0.3c4.9,9.1,5.9,16.1,5.9,24.1c-1.5-6-3.2-9.3-8.1-14.4c-0.1-0.1-0.2-0.1-0.3,0
				c-0.1,0.1-0.1,0.2-0.1,0.3c5.3,11.6,4.9,24.4,0.9,34.3c0,0.1,0,0.2,0.1,0.3c0.1,0.1,0.2,0.1,0.3,0c5.2-2.6,8.3-4.2,12.8-10.4
				c-1.4-7.4-0.2-11,3.2-17.2c-3.9,9.9-1.8,23.9,8.2,29.6c0.1,0.1,0.2,0,0.3-0.1c0.1-0.1,0.1-0.2,0-0.3c-3.8-4-6.5-10.6-4.2-17.9
				c-1.5,10.4,7.6,19.1,17.8,19.1c9.6,0,16.2-7.5,15.6-14.9c-0.5-7.4-5.4-11-9.7-12.5c-0.1,0-0.2,0-0.3,0.1c-0.1,0.1-0.1,0.2,0,0.3
				c5.6,5.7,6.4,16.5-3.6,19.8c5.9-5.1,3.7-16.8-5.7-17.7c-0.1,0-0.2,0.1-0.3,0.2c0,0.1,0,0.2,0.1,0.3c2,1.3,3.7,3.8,3.7,6.6
				c0,4.7-3.4,6.5-5.7,6.5c-3.4,0-6.3-3.3-6.3-8.2c0-5.8,5.3-10.7,12-11.4c6.6-0.7,12.8,2.2,15.8,6.5c0.1,0.1,0.2,0.1,0.3,0.1
				c0.1-0.1,0.2-0.2,0.1-0.3c-3-11.7-16.8-16.9-26.9-9.5c6.6-7.5,17-7.6,25.7,0.1c0.1,0.1,0.2,0.1,0.3,0c0.1-0.1,0.1-0.2,0.1-0.3
				c-2.7-5.4-9.3-11.8-18.6-10.9c-8.6,0.9-13.5,9-14.5,15.7c-0.6-8.5,1.4-14.5,8.8-20.1c0.1-0.1,0.1-0.2,0.1-0.3s-0.2-0.2-0.3-0.1
				c-6.8,2-12.2,5.4-15,12.5c0-6.2,2.1-12.4,7.5-16.5c0.1-0.1,0.1-0.2,0.1-0.3c-0.1-0.1-0.2-0.2-0.3-0.1c-3.5,1-6.2,2.5-8.1,5.2
				c-1.3-11.1-6.5-17.7-12.5-17.7c-4.1,0-7.2,3-7.2,7.9C202.9-226.1,204.4-222.1,207.7-219.9z M108.5-128.3c3.2,3.9,9.5,5.4,16.4,4
				c-0.5,4.3,0.3,8.8,1.6,11.5c0.1,0.1,0.2,0.2,0.3,0.1c0.1,0,0.2-0.1,0.2-0.3c-0.4-8.8,4.6-15.8,13.4-18.9
				c-6.9,4.8-8.9,14.2-5.6,19.1c0.1,0.1,0.2,0.1,0.3,0.1c0.1,0,0.2-0.2,0.2-0.3c-0.4-2.1,0.6-4.7,2.7-6.7c2.9-2.8,6.8-3.5,8.8-1.4
				c2,2,1.2,5.9-1.7,8.8c-1.1,1-2.3,1.8-3.4,2.2c-0.1,0-0.2,0.2-0.2,0.3c0,0.1,0.1,0.2,0.2,0.2c6.4,0.6,10.8-3.3,13.5-7.9
				c2.8-4.7,7.6-8.4,13.2-7.7c0.1,0,0.2-0.1,0.3-0.2c0-0.1,0-0.2-0.1-0.3c-2.8-1.7-5.9-2.4-9.9-1.1c5.8-4.9,14-7.7,21.8-5.2
				c0.1,0,0.2,0,0.3-0.1c0.1-0.1,0.1-0.2,0-0.3c-5.9-6.6-17.7-6.7-25.1-1.4c3-4.3,7.1-7.5,14.3-8.5c0.1,0,0.2-0.1,0.2-0.2
				c0-0.1-0.1-0.2-0.2-0.3c-8.3-3.1-16.6,0-23.4,8.2c3-6.4,7.9-11.5,14.8-14c0.1,0,0.2-0.2,0.2-0.3c0-0.1-0.1-0.2-0.2-0.2
				c-3.9-0.1-7.5,0.9-12.3,3.6c3.5-5.7,2.7-15.6-2.4-22.3c-0.1-0.1-0.2-0.1-0.3-0.1c-0.1,0-0.2,0.2-0.1,0.3
				c1.2,7.2-1.3,15.3-5.6,19.6c2.2-7.6,0-14.6-5.9-19.6c-0.1-0.1-0.2-0.1-0.3,0c-0.1,0-0.1,0.1-0.2,0.2c-1.2,9.4-11.8,19-20.6,19.8
				c-0.1,0-0.2,0.1-0.2,0.2c0,0.1,0.1,0.2,0.2,0.3c4.3,1,8.7,0.5,12.4-1c-2.7,2.9-5.9,5.1-9.6,6.2c-0.1,0-0.2,0.2-0.2,0.3
				c0,0.1,0.1,0.2,0.2,0.2c4.5,0.3,8.9-1,12.7-3.5c-4.4,6.6-11,11.5-19.4,13.5c-0.1,0-0.2,0.1-0.2,0.3c0,0.1,0.1,0.2,0.2,0.2
				c11.9,1.3,21.7-3.3,28.2-11.9c-1.6,4.9-6.4,9.8-12.9,12.6c-5.8,2.5-11.8,2.9-16.4,1.5c-0.1,0-0.2,0-0.3,0.1
				C108.4-128.5,108.4-128.4,108.5-128.3z M161.4-203.9c-4.8,10.5-4.5,18.7-0.6,29.1c0,0.1,0.2,0.2,0.3,0.2c0.1,0,0.2-0.1,0.2-0.3
				c-0.6-12.6,2.8-21.7,10.3-27.8c-8.3,9.9-4.4,29.6,8.8,29.6c9.6,0,17.5-8,19.5-17.5c0-0.1,0-0.2-0.2-0.3c-0.1,0-0.2,0-0.3,0.1
				c-2.8,4.8-7.4,7.9-12.5,7.9c-8.1,0-10.5-6.5-10.5-11c0-6.2,4.9-11.3,8.7-11.3c3.4,0,5,2.8,5,4.9c0,3.9-3,7.2-6.4,8.2
				c-0.1,0-0.2,0.2-0.2,0.3c0,0.1,0.1,0.2,0.3,0.2c4.1,0,7.6-1.9,9.6-5.6c0.3,2.9,0.3,4.7-0.6,7.7c0,0.1,0,0.2,0.1,0.3
				c0.1,0.1,0.2,0,0.3-0.1c7.4-9.4,3.8-25.6-2-32.4c5.5,4,10.4,12.6,10.3,24.4c0,0.1,0.1,0.2,0.2,0.3c0.1,0,0.2,0,0.3-0.2
				c4.1-10.3,1.9-29.2-9.3-39.9c2.9-0.4,5.9-0.3,9.1,0.7c0.1,0,0.2,0,0.3-0.1c0.1-0.1,0-0.2-0.1-0.3c-4.1-3.5-9.8-4.5-15.3-4.5
				c4.7,5.5,3.1,16.6-4.4,16.6c-5.3,0-7.8-8.3-3.6-12.8c0.1-0.1,0.1-0.2,0-0.3c-0.1-0.1-0.2-0.1-0.3-0.1c-4.8,1.7-9.9,5.8-9.9,11
				c0,5,4.8,9.4,11.8,9.1c-8.8,2.5-18.1-0.3-22.9-6.3c-0.1-0.1-0.2-0.1-0.3-0.1c-0.1,0.1-0.2,0.2-0.1,0.3
				c2.8,10.7,12,15.2,23.4,13.7c-9.3,3.8-23.3,0.5-29.4-7.3c-0.1-0.1-0.2-0.1-0.3-0.1c-0.1,0-0.2,0.2-0.1,0.3
				C152.2-210.8,155.7-205.8,161.4-203.9z"/>
		</g>
		<g>
			<path fill="#00427E" d="M26.7-184.6c0-0.1,0.1-0.2,0.2-0.2c12.9-0.1,24.8-3.3,34-11.5c-8,5.6-22.9,7.5-31.5,3.6
				c-0.1,0-0.2-0.2-0.1-0.3c0-0.1,0.1-0.2,0.3-0.2c10.7,0.3,19.3-3,26-9c-6.9-0.4-12.6-4.7-12.6-9.8c0-0.1,0.1-0.2,0.2-0.2
				c0.1,0,0.2,0,0.3,0.1c1.1,2.5,4.7,3.8,8.6,2.9c4.2-1,7-4.2,6.3-7.2c-0.5-2-2.4-3.4-5-3.8c-0.1,0-0.2-0.1-0.2-0.3
				c0-0.1,0.1-0.2,0.2-0.2c1.1-0.1,2.2-0.1,3.3,0c6.5,0.6,11.5,4.6,11.9,9.2c4.7-0.5,8.9-3.2,10.4-6.8c0-0.1,0.2-0.2,0.3-0.2
				c0.1,0,0.2,0.1,0.2,0.2c0.4,4.8-1.3,7.8-5,10.9c5.4-2.1,11.4-2.2,17.3,0.5c0.1,0,0.2,0.2,0.1,0.3c0,0.1-0.1,0.2-0.2,0.2
				c-4.9,0.2-8.4,1.8-11.7,5.1c18.3-5.1,33.1,6.2,28,23.1c0,0.1-0.1,0.2-0.3,0.2c-0.1,0-0.2-0.1-0.2-0.2
				c-0.9-9.7-7.7-16.1-17.9-17.1c5.4,2.1,11,7,11.6,15.5c0,0.1-0.1,0.2-0.2,0.3c-0.1,0-0.2,0-0.3-0.1c-2.8-6.2-8.3-9.3-14.2-9.8
				c6.3,2.6,10.4,8.6,11.6,16.4c0,0.1-0.1,0.2-0.2,0.3c-0.1,0-0.2,0-0.3-0.1c-3.9-7.6-12.2-12.8-22.4-8.8
				c-10.6,4.1-15.3,16.4-16.3,25c0,0.1-0.1,0.2-0.2,0.2c-0.1,0-0.2-0.1-0.3-0.2c-3.7-15.7,3.6-31.9,16.6-38.8
				c-7.1,2-13.4,6.3-17,13.4c-8.3,1-14,3.9-16.9,9.2c-0.1,0.1-0.2,0.2-0.3,0.1c-0.1,0-0.2-0.1-0.2-0.3c0.2-2.1,0.9-6.3,4.1-8.3
				c-7,0-12.5-0.9-17.8-3C26.7-184.3,26.7-184.5,26.7-184.6z M56.2-131.1c-0.1-0.1-0.2-0.1-0.3,0c-0.1,0.1-0.1,0.2,0,0.3
				c1.6,2.8,0.1,6.8-3.1,6.8c-5.7,0-8.5-10.8-7.6-20.6c2.2,5.8,4,8.1,7.3,10.8c0.1,0.1,0.2,0.1,0.3,0c0.1-0.1,0.1-0.2,0.1-0.3
				c-4.9-9.1-5.9-16.1-5.9-24.1c1.5,6,3.2,9.3,8.1,14.4c0.1,0.1,0.2,0.1,0.3,0c0.1-0.1,0.1-0.2,0.1-0.3c-5.3-11.6-4.9-24.4-0.9-34.3
				c0-0.1,0-0.2-0.1-0.3c-0.1-0.1-0.2-0.1-0.3,0c-5.2,2.6-8.3,4.2-12.8,10.4c1.4,7.4,0.2,11-3.2,17.2c3.9-9.9,1.8-23.9-8.2-29.6
				c-0.1-0.1-0.2,0-0.3,0.1c-0.1,0.1-0.1,0.2,0,0.3c3.8,4,6.5,10.6,4.2,17.9c1.5-10.4-7.6-19.1-17.8-19.1c-9.6,0-16.2,7.5-15.6,14.9
				c0.5,7.4,5.4,11,9.7,12.5c0.1,0,0.2,0,0.3-0.1c0.1-0.1,0-0.2,0-0.3c-5.6-5.7-6.4-16.5,3.6-19.8c-5.9,5.1-3.7,16.8,5.7,17.7
				c0.1,0,0.2-0.1,0.3-0.2c0-0.1,0-0.2-0.1-0.3c-2-1.3-3.7-3.8-3.7-6.6c0-4.7,3.4-6.5,5.7-6.5c3.4,0,6.3,3.3,6.3,8.2
				c0,5.8-5.3,10.7-12,11.4c-6.6,0.7-12.8-2.2-15.7-6.5c-0.1-0.1-0.2-0.1-0.3-0.1C0-156.9,0-156.8,0-156.7
				c3,11.7,16.8,16.9,26.9,9.5c-6.6,7.5-17,7.6-25.7-0.1c-0.1-0.1-0.2-0.1-0.3,0c-0.1,0.1-0.1,0.2-0.1,0.3
				c2.7,5.4,9.3,11.8,18.6,10.9c8.6-0.9,13.5-9,14.5-15.7c0.6,8.5-1.4,14.5-8.8,20.1c-0.1,0.1-0.1,0.2-0.1,0.3
				c0.1,0.1,0.2,0.2,0.3,0.1c6.8-2,12.2-5.4,15-12.5c0,6.2-2.1,12.4-7.5,16.5c-0.1,0.1-0.1,0.2-0.1,0.3c0.1,0.1,0.2,0.2,0.3,0.1
				c3.5-1,6.2-2.5,8.1-5.2c1.3,11.1,6.5,17.7,12.5,17.7c4.1,0,7.2-3,7.2-7.9C61-124.9,59.5-128.9,56.2-131.1z M155.4-222.7
				c-3.2-3.9-9.5-5.4-16.4-4c0.5-4.3-0.3-8.8-1.6-11.5c-0.1-0.1-0.2-0.2-0.3-0.1c-0.1,0-0.2,0.1-0.2,0.3c0.4,8.8-4.6,15.8-13.4,18.9
				c6.9-4.8,8.9-14.2,5.6-19.1c-0.1-0.1-0.2-0.1-0.3-0.1c-0.1,0-0.2,0.2-0.2,0.3c0.4,2.1-0.6,4.7-2.7,6.7c-2.9,2.8-6.8,3.5-8.8,1.4
				c-2-2-1.2-5.9,1.7-8.8c1.1-1,2.3-1.8,3.4-2.2c0.1,0,0.2-0.2,0.2-0.3c0-0.1-0.1-0.2-0.2-0.2c-6.4-0.6-10.8,3.3-13.5,7.9
				c-2.8,4.7-7.6,8.4-13.2,7.7c-0.1,0-0.2,0.1-0.3,0.2c0,0.1,0,0.2,0.1,0.3c2.8,1.7,5.9,2.4,9.9,1.1c-5.8,4.9-14,7.7-21.8,5.2
				c-0.1,0-0.2,0-0.3,0.1c-0.1,0.1-0.1,0.2,0,0.3c5.9,6.6,17.7,6.7,25.1,1.4c-3,4.3-7.1,7.5-14.3,8.5c-0.1,0-0.2,0.1-0.2,0.2
				c0,0.1,0.1,0.2,0.2,0.3c8.3,3.1,16.6,0,23.4-8.2c-3,6.4-7.9,11.5-14.8,14c-0.1,0-0.2,0.2-0.2,0.3c0,0.1,0.1,0.2,0.2,0.2
				c3.9,0.1,7.5-0.9,12.3-3.6c-3.5,5.7-2.7,15.6,2.4,22.3c0.1,0.1,0.2,0.1,0.3,0.1c0.1,0,0.2-0.2,0.1-0.3
				c-1.2-7.2,1.3-15.3,5.6-19.6c-2.2,7.6,0,14.6,5.9,19.6c0.1,0.1,0.2,0.1,0.3,0c0.1,0,0.1-0.1,0.2-0.2c1.2-9.4,11.8-19,20.6-19.8
				c0.1,0,0.2-0.1,0.2-0.2c0-0.1-0.1-0.2-0.2-0.3c-4.3-1-8.7-0.5-12.4,1c2.7-2.9,5.9-5.1,9.6-6.2c0.1,0,0.2-0.2,0.2-0.3
				c0-0.1-0.1-0.2-0.2-0.2c-4.5-0.3-8.9,1-12.7,3.5c4.4-6.6,11-11.5,19.4-13.5c0.1,0,0.2-0.1,0.2-0.3c0-0.1-0.1-0.2-0.2-0.2
				c-11.9-1.3-21.7,3.3-28.2,11.9c1.6-4.9,6.4-9.8,12.9-12.6c5.8-2.5,11.8-2.9,16.4-1.5c0.1,0,0.2,0,0.3-0.1
				C155.5-222.5,155.5-222.6,155.4-222.7z M102.5-147.2c4.8-10.5,4.5-18.7,0.6-29.1c0-0.1-0.2-0.2-0.3-0.2c-0.1,0-0.2,0.1-0.2,0.3
				c0.6,12.6-2.8,21.7-10.3,27.8c8.3-9.9,4.4-29.6-8.8-29.6c-9.6,0-17.5,8-19.5,17.5c0,0.1,0,0.2,0.2,0.3c0.1,0,0.2,0,0.3-0.1
				c2.8-4.8,7.4-7.9,12.5-7.9c8.1,0,10.5,6.5,10.5,11c0,6.2-4.9,11.3-8.7,11.3c-3.4,0-5-2.8-5-4.9c0-3.9,3-7.2,6.4-8.2
				c0.1,0,0.2-0.2,0.2-0.3c0-0.1-0.1-0.2-0.3-0.2c-4.1,0-7.6,1.9-9.6,5.6c-0.3-2.9-0.3-4.7,0.6-7.7c0-0.1,0-0.2-0.1-0.3
				c-0.1-0.1-0.2,0-0.3,0.1c-7.4,9.4-3.8,25.6,2,32.4c-5.5-4-10.4-12.6-10.3-24.4c0-0.1-0.1-0.2-0.2-0.3c-0.1,0-0.2,0-0.3,0.2
				c-4.1,10.3-1.9,29.2,9.3,39.9c-2.9,0.4-5.9,0.3-9.1-0.7c-0.1,0-0.2,0-0.3,0.1c-0.1,0.1,0,0.2,0.1,0.3c4.1,3.5,9.8,4.5,15.3,4.5
				c-4.7-5.5-3.1-16.6,4.4-16.6c5.3,0,7.8,8.3,3.6,12.8c-0.1,0.1-0.1,0.2,0,0.3c0.1,0.1,0.2,0.1,0.3,0.1c4.8-1.7,9.9-5.8,9.9-11
				c0-5-4.8-9.4-11.8-9.1c8.8-2.5,18.1,0.3,22.9,6.3c0.1,0.1,0.2,0.1,0.3,0.1c0.1-0.1,0.2-0.2,0.1-0.3c-2.8-10.7-12-15.2-23.4-13.7
				c9.3-3.8,23.2-0.5,29.4,7.3c0.1,0.1,0.2,0.1,0.3,0.1c0.1-0.1,0.2-0.2,0.1-0.3C111.8-140.3,108.3-145.2,102.5-147.2z"/>
			<path opacity="0.4" fill="#9DDCF9" d="M128.9-166.5c0,0.1-0.1,0.2-0.2,0.2c-12.9,0.1-24.8,3.3-34,11.5c8-5.6,22.9-7.5,31.5-3.6
				c0.1,0.1,0.2,0.2,0.1,0.3c0,0.1-0.1,0.2-0.3,0.2c-10.7-0.3-19.3,3-26,9c6.9,0.4,12.6,4.7,12.6,9.8c0,0.1-0.1,0.2-0.2,0.2
				c-0.1,0-0.2,0-0.3-0.1c-1.1-2.5-4.7-3.8-8.6-2.9c-4.2,1-7,4.2-6.3,7.2c0.5,2,2.4,3.4,5,3.8c0.1,0,0.2,0.1,0.2,0.3
				c0,0.1-0.1,0.2-0.2,0.2c-1.1,0.1-2.2,0.1-3.3,0c-6.5-0.6-11.5-4.6-11.9-9.2c-4.7,0.5-8.9,3.2-10.4,6.8c0,0.1-0.2,0.2-0.3,0.2
				c-0.1,0-0.2-0.1-0.2-0.2c-0.4-4.8,1.3-7.8,5-10.9c-5.4,2.1-11.4,2.2-17.3-0.5c-0.1-0.1-0.2-0.2-0.1-0.3c0-0.1,0.1-0.2,0.2-0.2
				c4.9-0.2,8.4-1.8,11.7-5.1c-18.3,5.1-33.1-6.2-28-23.1c0-0.1,0.1-0.2,0.3-0.2c0.1,0,0.2,0.1,0.2,0.2c0.9,9.7,7.7,16.1,17.9,17.1
				c-5.4-2.1-11-7-11.6-15.5c0-0.1,0.1-0.2,0.2-0.3c0.1,0,0.2,0,0.3,0.1c2.8,6.2,8.3,9.3,14.2,9.8c-6.3-2.6-10.4-8.6-11.6-16.4
				c0-0.1,0.1-0.2,0.2-0.3c0.1,0,0.2,0,0.3,0.1c3.9,7.6,12.2,12.8,22.4,8.8c10.6-4.1,15.3-16.4,16.3-25c0-0.1,0.1-0.2,0.2-0.2
				c0.1,0,0.2,0.1,0.3,0.2c3.7,15.7-3.6,31.9-16.6,38.8c7.1-2,13.4-6.3,17-13.4c8.3-1,14-3.9,16.9-9.2c0.1-0.1,0.2-0.2,0.3-0.1
				c0.1,0,0.2,0.1,0.2,0.3c-0.2,2.1-0.9,6.3-4.1,8.3c7,0,12.5,0.9,17.8,3C128.8-166.7,128.9-166.6,128.9-166.5z M99.4-219.9
				c0.1,0.1,0.2,0.1,0.3,0c0.1-0.1,0.1-0.2,0-0.3c-1.6-2.8-0.1-6.8,3.1-6.8c5.7,0,8.5,10.8,7.6,20.6c-2.2-5.8-4-8.1-7.3-10.8
				c-0.1-0.1-0.2-0.1-0.3,0c-0.1,0.1-0.1,0.2-0.1,0.3c4.9,9.1,5.9,16.1,5.9,24.1c-1.5-6-3.2-9.3-8.1-14.4c-0.1-0.1-0.2-0.1-0.3,0
				c-0.1,0.1-0.1,0.2-0.1,0.3c5.3,11.6,4.9,24.4,0.9,34.3c0,0.1,0,0.2,0.1,0.3c0.1,0.1,0.2,0.1,0.3,0c5.2-2.6,8.3-4.2,12.8-10.4
				c-1.4-7.4-0.2-11,3.2-17.2c-3.9,9.9-1.8,23.9,8.2,29.6c0.1,0.1,0.2,0,0.3-0.1c0.1-0.1,0.1-0.2,0-0.3c-3.8-4-6.5-10.6-4.2-17.9
				c-1.5,10.4,7.6,19.1,17.8,19.1c9.6,0,16.2-7.5,15.6-14.9c-0.5-7.4-5.4-11-9.7-12.5c-0.1,0-0.2,0-0.3,0.1c-0.1,0.1-0.1,0.2,0,0.3
				c5.6,5.7,6.4,16.5-3.6,19.8c5.9-5.1,3.7-16.8-5.7-17.7c-0.1,0-0.2,0.1-0.3,0.2c0,0.1,0,0.2,0.1,0.3c2,1.3,3.7,3.8,3.7,6.6
				c0,4.7-3.4,6.5-5.7,6.5c-3.4,0-6.3-3.3-6.3-8.2c0-5.8,5.3-10.7,12-11.4c6.6-0.7,12.8,2.2,15.8,6.5c0.1,0.1,0.2,0.1,0.3,0.1
				c0.1-0.1,0.2-0.2,0.1-0.3c-3-11.7-16.8-16.9-26.9-9.5c6.6-7.5,17-7.6,25.7,0.1c0.1,0.1,0.2,0.1,0.3,0c0.1-0.1,0.1-0.2,0.1-0.3
				c-2.7-5.4-9.3-11.8-18.6-10.9c-8.6,0.9-13.5,9-14.5,15.7c-0.6-8.5,1.4-14.5,8.8-20.1c0.1-0.1,0.1-0.2,0.1-0.3
				c-0.1-0.1-0.2-0.2-0.3-0.1c-6.8,2-12.2,5.4-15,12.5c0-6.2,2.1-12.4,7.5-16.5c0.1-0.1,0.1-0.2,0.1-0.3c-0.1-0.1-0.2-0.2-0.3-0.1
				c-3.5,1-6.2,2.5-8.1,5.2c-1.3-11.1-6.5-17.7-12.5-17.7c-4.1,0-7.2,3-7.2,7.9C94.6-226.1,96.1-222.1,99.4-219.9z M0.2-128.3
				c3.2,3.9,9.5,5.4,16.4,4c-0.5,4.3,0.3,8.8,1.6,11.5c0.1,0.1,0.2,0.2,0.3,0.1c0.1,0,0.2-0.1,0.2-0.3c-0.4-8.8,4.6-15.8,13.4-18.9
				c-6.9,4.8-8.9,14.2-5.6,19.1c0.1,0.1,0.2,0.1,0.3,0.1c0.1,0,0.2-0.2,0.2-0.3c-0.4-2.1,0.6-4.7,2.7-6.7c2.9-2.8,6.8-3.5,8.8-1.4
				c2,2,1.2,5.9-1.7,8.8c-1.1,1-2.3,1.8-3.4,2.2c-0.1,0-0.2,0.2-0.2,0.3c0,0.1,0.1,0.2,0.2,0.2c6.4,0.6,10.8-3.3,13.5-7.9
				c2.8-4.7,7.6-8.4,13.2-7.7c0.1,0,0.2-0.1,0.3-0.2c0-0.1,0-0.2-0.1-0.3c-2.8-1.7-5.9-2.4-9.9-1.1c5.8-4.9,14-7.7,21.8-5.2
				c0.1,0,0.2,0,0.3-0.1c0.1-0.1,0.1-0.2,0-0.3c-5.9-6.6-17.7-6.7-25.1-1.4c3-4.3,7.1-7.5,14.3-8.5c0.1,0,0.2-0.1,0.2-0.2
				c0-0.1-0.1-0.2-0.2-0.3c-8.3-3.1-16.6,0-23.4,8.2c3-6.4,7.9-11.5,14.8-14c0.1,0,0.2-0.2,0.2-0.3c0-0.1-0.1-0.2-0.2-0.2
				c-3.9-0.1-7.5,0.9-12.3,3.6c3.5-5.7,2.7-15.6-2.4-22.3c-0.1-0.1-0.2-0.1-0.3-0.1c-0.1,0-0.2,0.2-0.1,0.3
				c1.2,7.2-1.3,15.3-5.6,19.6c2.2-7.6,0-14.6-5.9-19.6c-0.1-0.1-0.2-0.1-0.3,0c-0.1,0-0.1,0.1-0.2,0.2c-1.2,9.4-11.8,19-20.6,19.8
				c-0.1,0-0.2,0.1-0.2,0.2c0,0.1,0.1,0.2,0.2,0.3c4.3,1,8.7,0.5,12.4-1c-2.7,2.9-5.9,5.1-9.6,6.2c-0.1,0-0.2,0.2-0.2,0.3
				c0,0.1,0.1,0.2,0.2,0.2c4.5,0.3,8.9-1,12.7-3.5c-4.4,6.6-11,11.5-19.4,13.5c-0.1,0-0.2,0.1-0.2,0.3c0,0.1,0.1,0.2,0.2,0.2
				c11.9,1.3,21.7-3.3,28.2-11.9c-1.6,4.9-6.4,9.8-12.9,12.6c-5.8,2.5-11.8,2.9-16.4,1.5c-0.1,0-0.2,0-0.3,0.1
				C0.1-128.5,0.1-128.4,0.2-128.3z M53.1-203.9c-4.8,10.5-4.5,18.7-0.6,29.1c0,0.1,0.2,0.2,0.3,0.2c0.1,0,0.2-0.1,0.2-0.3
				c-0.6-12.6,2.8-21.7,10.3-27.8c-8.3,9.9-4.4,29.6,8.8,29.6c9.6,0,17.5-8,19.5-17.5c0-0.1,0-0.2-0.2-0.3c-0.1,0-0.2,0-0.3,0.1
				c-2.8,4.8-7.4,7.9-12.5,7.9c-8.1,0-10.5-6.5-10.5-11c0-6.2,4.9-11.3,8.7-11.3c3.4,0,5,2.8,5,4.9c0,3.9-3,7.2-6.4,8.2
				c-0.1,0-0.2,0.2-0.2,0.3s0.1,0.2,0.3,0.2c4.1,0,7.6-1.9,9.6-5.6c0.3,2.9,0.3,4.7-0.6,7.7c0,0.1,0,0.2,0.1,0.3
				c0.1,0.1,0.2,0,0.3-0.1c7.4-9.4,3.8-25.6-2-32.4c5.5,4,10.4,12.6,10.3,24.4c0,0.1,0.1,0.2,0.2,0.3c0.1,0,0.2,0,0.3-0.2
				c4.1-10.3,1.9-29.2-9.3-39.9c2.9-0.4,5.9-0.3,9.1,0.7c0.1,0,0.2,0,0.3-0.1c0.1-0.1,0-0.2-0.1-0.3c-4.1-3.5-9.8-4.5-15.3-4.5
				c4.7,5.5,3.1,16.6-4.4,16.6c-5.3,0-7.8-8.3-3.6-12.8c0.1-0.1,0.1-0.2,0-0.3c-0.1-0.1-0.2-0.1-0.3-0.1c-4.8,1.7-9.9,5.8-9.9,11
				c0,5,4.8,9.4,11.8,9.1c-8.8,2.5-18.1-0.3-22.9-6.3c-0.1-0.1-0.2-0.1-0.3-0.1c-0.1,0.1-0.2,0.2-0.1,0.3
				c2.8,10.7,12,15.2,23.4,13.7c-9.3,3.8-23.3,0.5-29.4-7.3c-0.1-0.1-0.2-0.1-0.3-0.1c-0.1,0-0.2,0.2-0.1,0.3
				C43.8-210.8,47.3-205.8,53.1-203.9z"/>
		</g>
	</g>
</pattern>
<g id="Layer_2" display="none">
	
		<image display="inline" overflow="visible" opacity="0.5" width="2976" height="3968" id="XMLID_3_" xlink:href="C:\Users\jpchenilla\Desktop\IMG_20190729_170541.jpg"  transform="matrix(0.139 0 0 0.139 -47.9978 -160.375)">
	</image>
</g>
<g id="Layer_1" display="none">
	<g id="XMLID_31_" display="inline">
		<path id="XMLID_69_" d="M125.9,61.2c-0.5,0-1,0-1.5,0c44.7,0.7,81.7,32.9,89.7,75.4c1.2,0.8,2.3,1.5,3.4,2.4
			C210.4,94.9,172.1,61.2,125.9,61.2L125.9,61.2z"/>
	</g>
	<g id="XMLID_36_" display="inline">
		<path id="XMLID_64_" d="M138.3,64.5c-42.9,0-81.5,29.9-90.8,73.6c-0.1,0.5-0.2,1-0.3,1.5c9.8-42.9,48-72.1,90.4-72.1
			c0.7,0,1.3,0,2,0c1-1,2-1.9,3-2.9C141.2,64.5,139.8,64.5,138.3,64.5L138.3,64.5z"/>
	</g>
	<g id="XMLID_43_" display="inline">
		<path id="XMLID_75_" d="M44,144c-2.5,44.6,27.5,85.8,72.6,95.8c0.5,0.1,1,0.2,1.5,0.3c-43.5-10.4-72.6-49.9-71.2-93.1
			C45.8,146.1,44.9,145.1,44,144L44,144z"/>
	</g>
	<g id="XMLID_23_" display="inline">
		<path id="XMLID_61_" d="M186.1,75c35.3,27.4,45.5,75.4,26.5,114.2c0.5,1.3,0.9,2.6,1.3,3.9c20.7-39.6,10.4-89.5-26.6-117.3
			C186.9,75.6,186.5,75.3,186.1,75L186.1,75z"/>
	</g>
	<g id="XMLID_34_" display="inline">
		<path id="XMLID_38_" d="M86.2,232.2c0.1,0.8,0.3,1.6,0.4,2.4c14.4,9.6,31.7,15.2,50.3,15.4c0.3,0,0.6,0,0.9,0c0.5,0,1,0,1.5,0
			c-0.8,0-1.7,0-2.5-0.1C118,249.1,100.6,242.7,86.2,232.2L86.2,232.2z"/>
	</g>
	<g id="XMLID_12_" display="inline">
		<path id="XMLID_37_" d="M123,109.3c-30.2,0-59.5,14.8-77.2,41.1c1.8-0.9,3.6-1.7,5.4-2.5c17.8-23.8,45.7-37.2,74.4-37.2
			c14,0,28.2,3.2,41.5,9.9c-0.4-0.2-0.9-0.5-1.3-0.7C152.1,112.7,137.4,109.3,123,109.3L123,109.3z"/>
	</g>
	<g id="XMLID_8_" display="inline">
		<path id="XMLID_33_" d="M109.4,107.1c-41.6,16.3-66.5,60.9-56.8,106c0.1,0.5,0.2,1,0.3,1.5c-8.7-43.8,15-86.8,54.8-103.6
			C108.3,109.6,108.8,108.4,109.4,107.1L109.4,107.1z"/>
	</g>
	<g id="XMLID_4_" display="inline">
		<path id="XMLID_39_" d="M121.6,129.5c-44.3,5.8-79.2,42.9-80.8,89.1c0,0.5,0,1,0,1.5c2.2-44.6,35.6-80.5,78.3-87.2
			C119.9,131.7,120.7,130.6,121.6,129.5L121.6,129.5z"/>
	</g>
	<g id="XMLID_13_" display="inline">
		<path id="XMLID_83_" d="M117.3,131.6c-14.7,0-29.3,6-42,16.1c11.7-8.8,25.4-13.2,39.3-13.2c11.8,0,23.8,3.2,34.7,9.6
			c-1.4-1.4-3.9-5.2-4.7-5.2c0,0,0,0-0.1,0C135.7,133.9,126.5,131.6,117.3,131.6L117.3,131.6z M149.4,144.1c0.3,0.3,0.6,0.5,0.8,0.5
			c0,0,0,0,0.1,0C149.9,144.4,149.7,144.2,149.4,144.1L149.4,144.1z M75.3,147.7c-4,3-7.8,6.6-11.3,10.6c-0.2,0.3-0.5,0.6-0.7,0.9
			C67.1,154.9,71.1,151,75.3,147.7L75.3,147.7z"/>
	</g>
	<g id="XMLID_44_" display="inline">
		<path id="XMLID_89_" d="M116.6,128.7c-4.8,0-9.7,0.5-14.6,1.4c3.3-0.5,6.6-0.7,9.8-0.7c23,0,44.4,12.1,57,32.8
			c-0.6-2-1-6.6-1.8-6.8C155.6,137,137,128.7,116.6,128.7L116.6,128.7z M102,130c-5,0.7-10,2.1-15,4c-0.3,0.1-0.7,0.3-1,0.4
			C91.3,132.5,96.7,131,102,130L102,130z M168.8,162.1c0.2,0.5,0.3,0.8,0.5,0.9C169.2,162.6,169,162.4,168.8,162.1L168.8,162.1z"/>
	</g>
	<g id="XMLID_5_" display="inline">
		<path id="XMLID_47_" d="M119.4,133.7c-33.6,29.5-41.8,79.8-17.3,119c0.3,0.4,0.5,0.8,0.8,1.3c-23.1-38.2-15.4-86.7,16.3-116.1
			C119.3,136.5,119.3,135.1,119.4,133.7L119.4,133.7z"/>
	</g>
	<g id="XMLID_11_" display="inline">
		<path id="XMLID_50_" d="M125.3,136.8C93,160,81.2,203.9,99.5,240.8c0.2,0.4,0.4,0.8,0.6,1.2c-17.1-35.9-6-78.2,24.7-101.5
			C124.9,139.3,125.1,138,125.3,136.8L125.3,136.8z"/>
	</g>
	<g id="XMLID_15_" display="inline">
		<path id="XMLID_55_" d="M120,218.8c7.9,12.6,21.7,20,36.1,20c5.5,0,11.1-1.1,16.5-3.4c0.2-0.1,0.4-0.2,0.6-0.3
			c-5.2,2.1-10.6,3.1-15.9,3.1c-14.1,0-27.5-7-35.5-19C121.3,219.1,120.7,219,120,218.8L120,218.8z"/>
	</g>
	<g id="XMLID_21_" display="inline">
		<path id="XMLID_70_" d="M133.2,184.3c-10.2,10.6-14.4,31-5.6,42.6c0.1,0.1,0.2,0.3,0.3,0.4c-8.3-11.3-4.3-29.7,5.3-40.2
			C133.2,186.6,133.2,184.7,133.2,184.3L133.2,184.3z"/>
	</g>
	<g id="XMLID_9_" display="inline">
		<path id="XMLID_77_" d="M142.4,184.7c2.7,1.4,3.9,2.1,4.5,2.4c1.1,2.2,2.6,4.2,4.3,6C147.7,190.6,144.6,187.8,142.4,184.7
			 M138.9,181.4c5.4,11.4,22.7,21.5,36.3,21.5c2.2,0,4.4-0.3,6.4-0.9c0.2,0,2.5-0.8,2.7-0.8c-2.7,0.7-5.4,1.1-8.2,1.1
			c-11.4,0-23-6-28.2-16.2C147.4,186,139.3,181.6,138.9,181.4L138.9,181.4z"/>
	</g>
	<g id="XMLID_41_" display="inline">
		<path id="XMLID_74_" d="M181.1,203.6c-0.2,0-0.3,0-0.5,0c-0.2,0-0.3,0-0.5,0c0.1,0,0.2,0,0.3,0c13.8,0,18.8,23.9,21.9,37.7
			c0.4,0.2,0.7,0.5,1.1,0.7C200.6,227.7,195.2,203.6,181.1,203.6L181.1,203.6z"/>
	</g>
	<g id="XMLID_2_" display="inline">
		<path id="XMLID_32_" d="M164.3,123c1,1.7,2,3.5,2.9,5.2c37.3,23.8,53.1,71.5,35.7,113.6c0.2-0.5,0.4-0.9,0.6-1.4
			C222.5,196.6,204.9,146.2,164.3,123L164.3,123z"/>
	</g>
	<g id="XMLID_19_" display="inline">
		<path id="XMLID_28_" d="M86.2,232.2c0.1,0.8,0.3,1.6,0.4,2.4c14.4,9.6,31.7,15.2,50.3,15.4c0.3,0,0.6,0,0.9,0c0.5,0,1,0,1.5,0
			c-0.8,0-1.7,0-2.5-0.1C118,249.1,100.6,242.7,86.2,232.2L86.2,232.2z"/>
	</g>
	<g id="XMLID_17_" display="inline">
		<path id="XMLID_25_" d="M86.2,232.2c0.1,0.8,0.3,1.6,0.4,2.4c14.4,9.6,31.7,15.2,50.3,15.4c0.3,0,0.6,0,0.9,0c0.5,0,1,0,1.5,0
			c-0.8,0-1.7,0-2.5-0.1C118,249.1,100.6,242.7,86.2,232.2L86.2,232.2z"/>
	</g>
	<g id="XMLID_14_" display="inline">
		<path id="XMLID_40_" d="M86.2,232.2c0.1,0.8,0.3,1.6,0.4,2.4c14.4,9.6,31.7,15.2,50.3,15.4c0.3,0,0.6,0,0.9,0c0.5,0,1,0,1.5,0
			c-0.8,0-1.7,0-2.5-0.1C118,249.1,100.6,242.7,86.2,232.2L86.2,232.2z"/>
	</g>
	<g id="XMLID_10_" display="inline">
		<path id="XMLID_20_" d="M136.9,249.9C136.9,249.9,136.9,250,136.9,249.9c0.4,0.1,0.7,0.1,1,0.1c0.5,0,1,0,1.5,0
			C138.6,250,137.7,250,136.9,249.9L136.9,249.9z"/>
	</g>
	<g id="XMLID_60_" display="inline">
		<path id="XMLID_66_" d="M197.2,219.3c-0.4,0.2-0.9,0.4-1.4,0.6c-2,1.5-4.4,2.6-6.7,3.1c-13,8.1-28.1,12.7-43.9,12.7
			c-2.5,0-4.9-0.1-7.4-0.3c-0.9,0.8-1.9,1.6-2.9,2.3c3.2,0.4,6.4,0.6,9.6,0.6C164,238.3,182.6,231.4,197.2,219.3
			C197.2,219.3,197.2,219.3,197.2,219.3L197.2,219.3z"/>
	</g>
	<g id="XMLID_72_" display="inline">
		<path id="XMLID_65_" d="M224.4,177c-3.3,10.9-8.7,20.6-15.6,28.8c0,0.6,0,1.2-0.1,1.8c6.8-8.4,12.1-18.3,15.3-29.3
			C224.2,177.9,224.3,177.5,224.4,177L224.4,177z"/>
	</g>
</g>
<g id="Layer_3" display="none">
	
		<image display="inline" overflow="visible" width="259" height="194" id="XMLID_46_" xlink:href="C:\Users\jpchenilla\Desktop\images.jpg"  transform="matrix(0.7224 0 0 0.7224 -17.0079 52.6142)">
	</image>
</g>
<g id="Layer_4">
	<circle id="XMLID_1_" fill="#39B54A" stroke="#FFFFFF" stroke-width="2" stroke-miterlimit="10" cx="155.2" cy="147.9" r="96.4"/>
	<g id="XMLID_101_">
		<path id="XMLID_187_" fill="#009245" d="M234.8,87.5c11.4,15.2,18.4,33.4,19.9,52.4c-6.2-4.3-12.9-7.8-19.8-10.6
			c-0.8-3.3-1.8-6.6-3-9.9c2.1-8.3,3.2-16.9,3.2-25.6C235,91.7,234.9,89.6,234.8,87.5 M232.2,81.1c0.5,4.2,0.8,8.4,0.8,12.7
			c0,8.9-1.1,17.5-3.3,25.7c1.3,3.7,2.5,7.4,3.4,11.2c8.6,3.3,16.5,7.8,23.8,13.2C256,119.9,246.8,98.1,232.2,81.1L232.2,81.1z"/>
	</g>
	<g id="XMLID_117_">
		<path id="XMLID_183_" fill="#009245" d="M227.6,216.5c-9.6,10.2-21.3,18.2-34.2,23.6c8.3-5.8,15.8-12.8,22.1-20.8
			C219.6,218.6,223.6,217.7,227.6,216.5 M234,212.2c-6.3,2.4-12.8,4.2-19.6,5.2c-10,12.8-23,23.2-37.9,30
			C199.5,242.5,219.7,229.8,234,212.2L234,212.2z"/>
	</g>
	<g id="XMLID_119_">
		<path id="XMLID_179_" fill="#009245" d="M149.6,208.9c14.8,7.8,31.5,11.9,48.3,11.9c3.9,0,7.9-0.2,11.7-0.7
			c-9.3,10.8-20.9,19.5-33.7,25.4c-6.8,1.5-13.9,2.2-21,2.2c-14.5,0-28.4-3-41.5-9C127.6,231.8,140,221.5,149.6,208.9 M149,206.3
			c-10.3,14-24.2,25.3-40.2,32.5c13.8,7,29.5,11,46.1,11c7.4,0,14.6-0.8,21.6-2.3c14.9-6.9,27.9-17.2,37.9-30
			c-5.4,0.9-10.9,1.3-16.5,1.3C180.2,218.8,163.5,214.3,149,206.3L149,206.3z"/>
	</g>
	<g id="XMLID_106_">
		<path id="XMLID_174_" fill="#009245" d="M228.1,131c1.1,0.4,2.2,0.8,3.3,1.2c1.7,7.4,2.6,14.9,2.6,22.6c0,22.3-7.1,43.3-20.6,60.9
			c-5,0.8-10.2,1.2-15.4,1.2c-16,0-31.8-3.8-45.9-11.1c2.7-3.8,5.1-7.7,7.2-11.7C190.8,185,216.4,161.6,228.1,131 M226.9,128.5
			c-11.2,31-37,55-69.1,63.7c-2.5,5-5.5,9.7-8.8,14.1c14.5,8,31.2,12.5,48.9,12.5c5.6,0,11.1-0.5,16.5-1.3
			c13.5-17.3,21.6-39.1,21.6-62.7c0-8.3-1-16.4-2.9-24.1C231.1,129.9,229,129.2,226.9,128.5L226.9,128.5z"/>
	</g>
	<g id="XMLID_107_">
		<path id="XMLID_168_" fill="#009245" d="M235.9,134c6.7,2.9,13.1,6.6,19,10.9c0,0.9,0,1.8,0,2.8c0,22.8-7.9,45.1-22.2,62.8
			c-4.5,1.7-9.1,3-13.7,4c12.4-17.5,18.9-38.1,18.9-59.8C238,147.8,237.3,140.8,235.9,134 M233.1,130.7c1.9,7.7,2.9,15.8,2.9,24.1
			c0,23.6-8,45.4-21.6,62.7c6.8-1.1,13.3-2.9,19.6-5.2c14.3-17.6,23-40,23-64.5c0-1.3,0-2.6-0.1-3.8
			C249.6,138.5,241.7,134,233.1,130.7L233.1,130.7z"/>
	</g>
	<g id="XMLID_82_">
		<path id="XMLID_171_" fill="#009245" d="M118.8,52.3c-2,0.7-3.9,1.5-5.8,2.4c-0.2,0.1-0.5,0.2-0.7,0.3c0.3-0.1,0.6-0.1,0.9-0.2
			c0.9,0.4,1.7,0.9,2.6,1.4c0.5-0.7,1.1-1.4,1.6-2.1C117.9,53.4,118.3,52.8,118.8,52.3L118.8,52.3z"/>
	</g>
	<g id="XMLID_127_">
		<path id="XMLID_164_" fill="#009245" d="M223.3,74.8c2.4,2.3,4.8,4.7,6.9,7.2c0.5,3.9,0.7,7.8,0.7,11.8c0,6.4-0.6,12.8-1.8,19
			c-4.2-9.6-9.9-18.5-16.9-26.5C216.2,82.8,220,78.9,223.3,74.8 M223.1,71.8c-4.1,5.2-8.7,10-13.7,14.3c8.7,9.6,15.7,20.9,20.2,33.3
			c2.1-8.2,3.3-16.8,3.3-25.7c0-4.3-0.3-8.5-0.8-12.7C229.4,77.8,226.3,74.7,223.1,71.8L223.1,71.8z"/>
	</g>
	<g id="XMLID_125_">
		<path id="XMLID_160_" fill="#009245" d="M209.3,88.9c8,9.1,14.1,19.4,18.3,30.7c-0.6,2.1-1.2,4.3-2,6.4
			c-9.6-2.9-19.6-4.3-29.7-4.3c-9.2,0-18.2,1.2-27,3.5c-1-5-2.4-10-4.1-14.8C181.1,107,196.4,99.6,209.3,88.9 M209.5,86.1
			c-13.3,11.4-29.5,19.5-47.3,22.9c2.3,6,4.1,12.3,5.3,18.8c9-2.6,18.6-4,28.5-4c10.8,0,21.2,1.7,31,4.8c1.1-3,2-6,2.8-9
			C225.1,107,218.2,95.8,209.5,86.1L209.5,86.1z"/>
	</g>
	<g id="XMLID_111_">
		<path id="XMLID_156_" fill="#009245" d="M195.9,125.7c9.7,0,19.2,1.4,28.4,4.1c-10.9,28.2-34,50-62.7,59.2
			c6.2-13.6,9.4-28.1,9.4-43.3c0-5.6-0.4-11.1-1.3-16.6C178.2,126.9,187,125.7,195.9,125.7 M195.9,123.7c-9.9,0-19.5,1.4-28.5,4
			c1,5.8,1.6,11.9,1.6,18c0,16.7-4,32.5-11.2,46.5c32.1-8.7,57.9-32.7,69.1-63.7C217.1,125.4,206.7,123.7,195.9,123.7L195.9,123.7z"
			/>
	</g>
	<g id="XMLID_110_">
		<path id="XMLID_152_" fill="#009245" d="M56.7,166.6C68.1,178.3,82,187,97.4,192.3c-3.6,10.6-5.5,21.8-5.5,33.2
			C73.6,210.6,61.1,189.6,56.7,166.6 M53.7,160.4c3.5,28.3,18.5,53,40.3,69.2c-0.1-1.3-0.1-2.5-0.1-3.8c0-12.2,2.1-23.9,6.1-34.7
			C81.8,185.2,65.8,174.5,53.7,160.4L53.7,160.4z"/>
	</g>
	<g id="XMLID_96_">
		<path id="XMLID_148_" fill="#009245" d="M110.6,173.4c4.9,7.5,10.7,14.3,17.3,20.3c-8.6-0.3-17.2-1.6-25.4-4
			C104.7,184.1,107.4,178.6,110.6,173.4 M110.7,169.7c-4.4,6.6-8,13.8-10.7,21.3c9.8,3.1,20.2,4.8,31,4.8c0.8,0,1.6,0,2.4,0
			C124.4,188.4,116.7,179.6,110.7,169.7L110.7,169.7z"/>
	</g>
	<g id="XMLID_103_">
		<path id="XMLID_144_" fill="#009245" d="M101.2,193.5c9.6,2.9,19.6,4.3,29.7,4.3c0.6,0,1.2,0,1.7,0c4.2,3.4,8.7,6.5,13.4,9.2
			c-9.8,12.7-22.6,22.9-37.2,29.6c-4.5-2.3-8.9-5-13-8c0-0.9,0-1.8,0-2.8C95.9,214.7,97.7,203.8,101.2,193.5 M99.9,191
			c-3.9,10.8-6.1,22.5-6.1,34.7c0,1.3,0,2.6,0.1,3.8c4.7,3.5,9.6,6.6,14.9,9.2c16-7.2,29.9-18.5,40.2-32.5
			c-5.6-3-10.8-6.6-15.7-10.6c-0.8,0-1.6,0-2.4,0C120.1,195.8,109.7,194.1,99.9,191L99.9,191z"/>
	</g>
	<g id="XMLID_102_">
		<path id="XMLID_177_" fill="#009245" d="M165.8,130.3c0.8,5.1,1.2,10.2,1.2,15.4c0,15.7-3.5,30.8-10.5,44.8
			c-7.3,1.9-14.8,3-22.4,3.2c-8.3-6.9-15.3-14.9-21-24C125.7,151,144.3,137.1,165.8,130.3 M167.4,127.8
			c-23.5,6.8-43.6,21.9-56.7,41.9c6,9.9,13.7,18.8,22.7,26.1c8.4-0.2,16.6-1.4,24.5-3.6c7.1-13.9,11.2-29.7,11.2-46.5
			C169,139.6,168.4,133.6,167.4,127.8L167.4,127.8z"/>
	</g>
	<g id="XMLID_99_">
		<path id="XMLID_136_" fill="#009245" d="M98.8,103c13.8,6.5,28.7,9.8,44.1,9.8c6,0,12.1-0.5,17.9-1.5c1.8,4.9,3.2,9.9,4.2,15.1
			c-21.9,6.8-41.1,20.7-54.3,39.6c-8.5-15-12.9-31.9-12.9-49.2C97.9,112.2,98.2,107.6,98.8,103 M97.2,100c-0.9,5.4-1.4,11-1.4,16.7
			c0,19.4,5.4,37.5,14.8,52.9c13.2-20,33.2-35.1,56.7-41.9c-1.2-6.5-2.9-12.8-5.3-18.8c-6.2,1.2-12.7,1.8-19.2,1.8
			C126.5,110.8,111,106.9,97.2,100L97.2,100z"/>
	</g>
	<g id="XMLID_97_">
		<path id="XMLID_132_" fill="#009245" d="M75,87.6c6.1,5.3,12.9,9.9,20,13.6c-0.8,5.1-1.2,10.4-1.2,15.6c0,18.7,5,36.9,14.4,52.9
			c-3.8,5.9-7,12.3-9.6,18.9c-16.6-5.6-31.5-15.6-43.2-28.9c-0.5-3.9-0.7-7.8-0.7-11.8C54.9,125.8,61.8,105,75,87.6 M74.7,84.7
			C61,102,52.9,123.9,52.9,147.7c0,4.3,0.3,8.5,0.8,12.7c12.2,14.1,28.1,24.8,46.3,30.6c2.7-7.6,6.3-14.7,10.7-21.3
			c-9.4-15.4-14.8-33.5-14.8-52.9c0-5.7,0.5-11.3,1.4-16.7C89,95.9,81.5,90.7,74.7,84.7L74.7,84.7z"/>
	</g>
	<g id="XMLID_104_">
		<path id="XMLID_128_" fill="#009245" d="M154.9,47.7c24.1,0,47.3,8.6,65.5,24.4c-3.3,4-6.9,7.8-10.8,11.3
			c-19.6-20.8-47.1-32.6-75.7-32.6c-1.2,0-2.4,0-3.7,0.1C138.3,48.7,146.5,47.7,154.9,47.7 M154.9,45.7c-12.7,0-24.9,2.3-36.1,6.6
			c-0.5,0.6-1,1.2-1.4,1.8c5.4-0.9,10.9-1.3,16.5-1.3c29.9,0,56.9,12.9,75.5,33.4c5-4.3,9.6-9.1,13.7-14.3
			C205,55.6,181.1,45.7,154.9,45.7L154.9,45.7z"/>
	</g>
	<g id="XMLID_95_">
		<path id="XMLID_122_" fill="#009245" d="M133.9,54.7c27.4,0,53.8,11.4,72.6,31.3c-12.5,10.3-27.4,17.5-43.2,20.8
			c-8.6-21.4-24.2-39.3-44.2-50.9C124,55.1,129,54.7,133.9,54.7 M133.9,52.7c-5.6,0-11.1,0.4-16.5,1.3c-0.5,0.7-1.1,1.4-1.6,2.1
			c21.1,11.5,37.6,30.2,46.3,52.8c17.9-3.4,34.1-11.5,47.3-22.9C190.8,65.6,163.8,52.7,133.9,52.7L133.9,52.7z"/>
	</g>
	<g id="XMLID_115_">
		<path id="XMLID_116_" fill="#009245" d="M116.4,58.8c19.3,11,34.5,28.2,43,48.7c-5.4,0.9-10.9,1.3-16.5,1.3
			c-15.2,0-29.8-3.3-43.4-9.9C102.1,84.5,107.9,70.7,116.4,58.8 M115.8,56.2c-9.4,12.7-15.9,27.6-18.6,43.9
			c13.7,6.9,29.3,10.8,45.7,10.8c6.6,0,13-0.6,19.2-1.8C153.4,86.4,136.9,67.7,115.8,56.2L115.8,56.2z"/>
	</g>
	<g id="XMLID_98_">
		<path id="XMLID_109_" fill="#009245" d="M112.7,57c-8.4,12-14.2,25.7-17,40c-6.5-3.5-12.7-7.7-18.3-12.6
			C87,72.8,99.1,63.3,112.7,57 M113.2,54.8c-0.3,0.1-0.6,0.1-0.9,0.2c-14.8,6.8-27.7,17-37.6,29.7C81.5,90.7,89,95.9,97.2,100
			c2.7-16.2,9.2-31.2,18.6-43.9C115,55.7,114.1,55.2,113.2,54.8L113.2,54.8z"/>
	</g>
</g>
<g id="Layer_5">
	<circle id="XMLID_141_" display="none" fill="#F2F2F2" cx="138" cy="174.5" r="72"/>
	<g id="XMLID_93_">
		<path id="XMLID_202_" fill="#4D4D4D" stroke="#F7F2F2" stroke-width="1.7872" stroke-miterlimit="10" d="M169.1,81.2
			c0.1,0,0.2,0.1,0.3,0.1c2.9-3.7,6.1-7.2,9.6-10.5C175.5,74,172.2,77.5,169.1,81.2z M169.1,81.2c0.1,0,0.2,0.1,0.3,0.1
			c2.9-3.7,6.1-7.2,9.6-10.5C175.5,74,172.2,77.5,169.1,81.2z"/>
		<path id="XMLID_197_" fill="#4D4D4D" stroke="#F7F2F2" stroke-width="1.7872" stroke-miterlimit="10" d="M271.7,149
			c0,41.2-21.5,77.6-53.9,98.4c-2.1,1.4-4.2,2.6-6.4,3.8c-1.9,1-3.7,2-5.7,2.9c-2,1-4.1,1.9-6.2,2.8c-13.8,5.7-28.8,8.9-44.7,8.9
			c-66.2,0-119.7-55.4-116.7-122.3C41,83.6,89.6,35,149.6,32.3c18.5-0.8,36.2,2.7,52,9.7c-4.2,2-8.2,4.3-12.1,6.8
			c-12.4-4.3-25.8-6.4-39.7-5.7c-10.5,0.5-20.6,2.5-30.2,5.9C80.1,63,51,100.1,48.9,143.9c-1.8,37.2,15.7,70.5,43.3,90.7
			c17.6,12.9,39.2,20.6,62.7,20.6c11.8,0,23.1-1.9,33.7-5.5c1.7-0.6,3.3-1.1,4.9-1.8c2.4-0.9,4.7-1.9,6.9-3c1.8-0.8,3.5-1.7,5.1-2.6
			c33-18,55.5-53,55.5-93.2c0-34.2-16.3-64.7-41.5-84.1c-3.9-3-9.2-3.4-13.4-0.9c-2.4,1.4-4.8,2.9-7.1,4.5c-3.1,2.1-6,4.3-8.8,6.7
			c-4.1,3.5-8,7.3-11.6,11.4c-2.2-2.1-4.7-3.6-7.3-4.7c-0.6-0.3-1.2-0.5-1.8-0.7c2.9-3.7,6.1-7.2,9.6-10.5c0.4-0.4,0.8-0.8,1.2-1.2
			c0.2-0.1,0.3-0.3,0.5-0.4c2.8-2.6,5.8-5,8.9-7.2c3.9-2.9,8.1-5.6,12.4-8c0,0-0.1,0-0.1-0.1l0.2-0.1c7.3-3.9,16.1-3.3,22.7,1.6
			l0.1,0.1C253.3,76.9,271.7,110.9,271.7,149z"/>
	</g>
	<path id="XMLID_76_" fill="none" stroke="#009245" stroke-width="17.8723" stroke-linecap="round" stroke-miterlimit="10" d="
		M277.4,59.9"/>
	<linearGradient id="XMLID_191_" gradientUnits="userSpaceOnUse" x1="161.7903" y1="142.2961" x2="42.6418" y2="171.4875">
		<stop  offset="5.376344e-003" style="stop-color:#333333"/>
		<stop  offset="0.1371" style="stop-color:#3C3C3C"/>
		<stop  offset="0.3522" style="stop-color:#555555"/>
		<stop  offset="0.4785" style="stop-color:#666666"/>
		<stop  offset="0.5091" style="stop-color:#606060"/>
		<stop  offset="0.7221" style="stop-color:#3A3A3A"/>
		<stop  offset="0.8932" style="stop-color:#232323"/>
		<stop  offset="1" style="stop-color:#1A1A1A"/>
	</linearGradient>
	<path id="XMLID_204_" fill="url(#XMLID_191_)" d="M179.2,87.2c-0.2-0.2-0.4-0.4-0.6-0.6c-2.2-2.1-4.7-3.6-7.3-4.7
		c-0.7-0.3-1.4-0.5-2.2-0.8c-2.2-0.6-4.5-1-6.8-1c-7.1,0-14.2,3.1-18.9,9.3L28.9,237.6l113.1-87.5l11.6-9l23.4-18.1
		C188.3,114.2,189.4,97.4,179.2,87.2z M173.9,104.8c-0.2,3.4-1.8,6.4-4.5,8.4l-11.3,8.7l-3.6,2.8c0.1-0.6,0.1-1.1,0.1-1.7
		c0-2.9-1.1-5.8-3.3-8c-0.5-0.5-1-0.9-1.6-1.3c-2.4-1.7-5.3-2.3-8.1-1.9L153.1,97c1.9-2.4,4.5-3.9,7.5-4.4c0.6-0.1,1.1-0.1,1.7-0.1
		c3.1,0,6,1.2,8.2,3.4c0.2,0.2,0.3,0.3,0.5,0.5C173.1,98.7,174.1,101.7,173.9,104.8z"/>
	<g id="XMLID_58_">
		<g id="XMLID_233_">
			<path id="XMLID_234_" fill="#FFDD00" d="M185.1,80.2c0.8,1.2,0.9,2.8,0.1,4.2c-1.1,2-3.6,2.7-5.6,1.7l-9.1-4.7
				c-1.9-1-2.6-3.4-1.5-5.4c1.1-2,3.6-2.7,5.6-1.7l9.1,4.7C184.3,79.3,184.7,79.7,185.1,80.2z"/>
		</g>
		<g id="XMLID_231_">
			<pattern  id="XMLID_192_" xlink:href="#Jive" patternTransform="matrix(0 -1.47 1.47 0 3405.1487 -19464.5781)">
			</pattern>
			<path id="XMLID_232_" fill="url(#XMLID_192_)" d="M185.1,80.2c0.8,1.2,0.9,2.8,0.1,4.2c-1.1,2-3.6,2.7-5.6,1.7l-9.1-4.7
				c-1.9-1-2.6-3.4-1.5-5.4c1.1-2,3.6-2.7,5.6-1.7l9.1,4.7C184.3,79.3,184.7,79.7,185.1,80.2z"/>
		</g>
		<g id="XMLID_229_">
			<path id="XMLID_230_" fill="#006837" d="M185.1,80.2c0.8,1.2,0.9,2.8,0.1,4.2c-1.1,2-3.6,2.7-5.6,1.7l-9.1-4.7
				c-1.9-1-2.6-3.4-1.5-5.4c1.1-2,3.6-2.7,5.6-1.7l9.1,4.7C184.3,79.3,184.7,79.7,185.1,80.2z"/>
		</g>
		<g id="XMLID_227_">
			<path id="XMLID_228_" fill="none" stroke="#FFFFFF" stroke-width="1.1663" stroke-miterlimit="10" d="M185.1,80.2
				c0.8,1.2,0.9,2.8,0.1,4.2c-1.1,2-3.6,2.7-5.6,1.7l-9.1-4.7c-1.9-1-2.6-3.4-1.5-5.4c1.1-2,3.6-2.7,5.6-1.7l9.1,4.7
				C184.3,79.3,184.7,79.7,185.1,80.2z"/>
		</g>
	</g>
	<g id="XMLID_51_">
		<g id="XMLID_224_">
			<path id="XMLID_225_" fill="#FFDD00" d="M168.3,92.6c-0.7,1.3-2,2.1-3.6,2c-2.3-0.1-4.1-1.9-4.1-4.1l-0.1-10.3
				c0-2.2,1.8-3.9,4.1-3.8c2.3,0.1,4.1,1.9,4.1,4.1l0.1,10.3C168.7,91.5,168.6,92.1,168.3,92.6z"/>
		</g>
		<g id="XMLID_222_">
			<pattern  id="XMLID_193_" xlink:href="#Jive" patternTransform="matrix(0 -1.47 1.47 0 3405.1487 -19464.5781)">
			</pattern>
			<path id="XMLID_223_" fill="url(#XMLID_193_)" d="M168.3,92.6c-0.7,1.3-2,2.1-3.6,2c-2.3-0.1-4.1-1.9-4.1-4.1l-0.1-10.3
				c0-2.2,1.8-3.9,4.1-3.8c2.3,0.1,4.1,1.9,4.1,4.1l0.1,10.3C168.7,91.5,168.6,92.1,168.3,92.6z"/>
		</g>
		<g id="XMLID_220_">
			<path id="XMLID_221_" fill="#006837" d="M168.3,92.6c-0.7,1.3-2,2.1-3.6,2c-2.3-0.1-4.1-1.9-4.1-4.1l-0.1-10.3
				c0-2.2,1.8-3.9,4.1-3.8c2.3,0.1,4.1,1.9,4.1,4.1l0.1,10.3C168.7,91.5,168.6,92.1,168.3,92.6z"/>
		</g>
		<g id="XMLID_218_">
			<path id="XMLID_219_" fill="none" stroke="#FFFFFF" stroke-width="1.1663" stroke-miterlimit="10" d="M168.3,92.6
				c-0.7,1.3-2,2.1-3.6,2c-2.3-0.1-4.1-1.9-4.1-4.1l-0.1-10.3c0-2.2,1.8-3.9,4.1-3.8c2.3,0.1,4.1,1.9,4.1,4.1l0.1,10.3
				C168.7,91.5,168.6,92.1,168.3,92.6z"/>
		</g>
	</g>
	<g id="XMLID_87_">
		<g id="XMLID_215_">
			<path id="XMLID_216_" fill="#FFDD00" d="M172,100.6c-1.4-0.1-2.7-1.1-3.3-2.6c-0.8-2.1,0.2-4.5,2.2-5.4l9.5-4
				c2-0.9,4.3,0.2,5.1,2.3c0.8,2.1-0.2,4.5-2.2,5.4l-9.5,4C173.2,100.6,172.6,100.7,172,100.6z"/>
		</g>
		<g id="XMLID_213_">
			<pattern  id="XMLID_194_" xlink:href="#Jive" patternTransform="matrix(0 -1.47 1.47 0 3405.1487 -19464.5781)">
			</pattern>
			<path id="XMLID_214_" fill="url(#XMLID_194_)" d="M172,100.6c-1.4-0.1-2.7-1.1-3.3-2.6c-0.8-2.1,0.2-4.5,2.2-5.4l9.5-4
				c2-0.9,4.3,0.2,5.1,2.3c0.8,2.1-0.2,4.5-2.2,5.4l-9.5,4C173.2,100.6,172.6,100.7,172,100.6z"/>
		</g>
		<g id="XMLID_211_">
			<path id="XMLID_212_" fill="#006837" d="M172,100.6c-1.4-0.1-2.7-1.1-3.3-2.6c-0.8-2.1,0.2-4.5,2.2-5.4l9.5-4
				c2-0.9,4.3,0.2,5.1,2.3c0.8,2.1-0.2,4.5-2.2,5.4l-9.5,4C173.2,100.6,172.6,100.7,172,100.6z"/>
		</g>
		<g id="XMLID_209_">
			<path id="XMLID_210_" fill="none" stroke="#FFFFFF" stroke-width="1.1663" stroke-miterlimit="10" d="M172,100.6
				c-1.4-0.1-2.7-1.1-3.3-2.6c-0.8-2.1,0.2-4.5,2.2-5.4l9.5-4c2-0.9,4.3,0.2,5.1,2.3c0.8,2.1-0.2,4.5-2.2,5.4l-9.5,4
				C173.2,100.6,172.6,100.7,172,100.6z"/>
		</g>
	</g>
	<linearGradient id="XMLID_195_" gradientUnits="userSpaceOnUse" x1="163.1524" y1="170.3627" x2="282.4499" y2="170.3627">
		<stop  offset="0" style="stop-color:#4D4D4D"/>
		<stop  offset="1" style="stop-color:#333333"/>
	</linearGradient>
	<path id="XMLID_205_" fill="url(#XMLID_195_)" stroke="#F7F2F2" stroke-width="2" stroke-miterlimit="10" d="M271.7,150.7
		c0,1.8-0.1,3.5-0.2,5.3c3.1,1.9,5.1,5.3,5.1,9.2c0,5-3.4,9.3-8,10.5c-0.9,0.3-1.9,0.4-3,0.4c-2.9,0-5.5-1.1-7.5-2.9
		c-2.1-2-3.5-4.8-3.5-8c0-4.3,2.5-6.9,6.1-8.7c0.1-1.9,0.2-3.5,0.2-4.5h-81.8c-4.4,0-8.5,0.5-11.4,3.4c-2.9,2.9-4.7,6.2-4.7,10.6
		c0,6.2,3.5,11.4,8.7,14.1l0.7,9.9l30.9-6h63c0.2,0,0.4-1,0.7-1c4.2-0.2,7.9-2.5,10.7-5.3c2.9-2.9,4.7-7.3,4.7-11.7
		C282.4,158.9,278,152.8,271.7,150.7z"/>
</g>
</svg>
